<svg xmlns="http://www.w3.org/2000/svg" enable-background="new 0 0 2800 2000" viewBox="0 0 2800 2000"><path fill="#d5f0ff" d="M1256.1 58.9c336.4-18.4 644.3 79 850.6 245.5 327.5 114.2 559.6 350 580.2 633.8 30.5 421.6-417.7 789.1-1001.1 820.9-159.9 8.7-313.4-8.7-452.5-47.3-7.4.6-14.8 1-22.3 1.4C627.6 1745 130.1 1429 99.5 1007.6 82.1 766.8 220.9 543.7 451.6 390.7 632.6 205.3 922.1 77 1256.1 58.9z" class="colord5f0ff svgShape"/><path fill="#8dafdc" fill-rule="evenodd" d="M568.7 205.6c36.8-27.9 82.6-44.5 132.3-44.5 120.8 0 218.8 98 218.8 218.8s-98 218.8-218.8 218.8c-22.2 0-43.7-3.3-63.9-9.5-7.6 2-15.6 3-23.9 3-16.9 0-32.7-4.3-46.3-12-21.7 14.2-47.5 22.3-75.3 22.3-33.6 0-64.6-12.1-88.4-32.2-32.7 26.8-74.5 42.9-120 42.9C178.7 613.2 94 528.5 94 424c0-95.4 70.6-174.2 162.3-187.2 14.6-75.6 81.1-132.7 161-132.7 68.3 0 126.9 41.9 151.4 101.5z" clip-rule="evenodd" class="color8dafdc svgShape"/><path fill="#ffffff" fill-rule="evenodd" d="M597.8 205.6c36.8-27.9 82.6-44.5 132.3-44.5 120.8 0 218.8 98 218.8 218.8s-98 218.8-218.8 218.8c-22.2 0-43.7-3.3-63.9-9.5-7.6 2-15.6 3-23.9 3-16.9 0-32.7-4.3-46.3-12-21.7 14.2-47.5 22.3-75.3 22.3-33.6 0-64.6-12.1-88.4-32.2-32.7 26.8-74.5 42.9-120 42.9-104.5 0-189.2-84.7-189.2-189.2 0-95.4 70.6-174.2 162.3-187.2 14.6-75.6 81.1-132.7 161-132.7 68.2 0 126.8 41.9 151.4 101.5z" clip-rule="evenodd" class="colorfff svgShape"/><path fill="#8dafdc" fill-rule="evenodd" d="M2171.4 193.1c-43-32.7-96.7-52.1-154.8-52.1-141.5 0-256.4 114.7-256.4 256.3s114.8 256.3 256.4 256.3c26 0 51.1-3.9 74.8-11.1 8.9 2.3 18.3 3.6 28 3.6 19.8 0 38.3-5.1 54.4-14.1 25.4 16.5 55.6 26.1 88.1 26.1 39.4 0 75.6-14.2 103.6-37.7 38.3 31.4 87.3 50.2 140.6 50.2 122.4 0 221.7-99.2 221.7-221.6 0-111.7-82.6-204.1-190.1-219.4-17.1-88.5-95-155.4-188.6-155.4-80.3 0-148.9 49.2-177.7 118.9z" clip-rule="evenodd" class="color8dafdc svgShape"/><path fill="#ffffff" fill-rule="evenodd" d="M2143.9 193.1c-43-32.7-96.7-52.1-154.8-52.1-141.5 0-256.4 114.7-256.4 256.3s114.8 256.3 256.4 256.3c26 0 51.1-3.9 74.8-11.1 8.9 2.3 18.3 3.6 28 3.6 19.8 0 38.3-5.1 54.4-14.1 25.4 16.5 55.6 26.1 88.1 26.1 39.4 0 75.6-14.2 103.6-37.7 38.3 31.4 87.3 50.2 140.6 50.2 122.4 0 221.7-99.2 221.7-221.6 0-111.7-82.6-204.1-190.1-219.4-17.1-88.5-95-155.4-188.6-155.4-80.2 0-148.8 49.2-177.7 118.9z" clip-rule="evenodd" class="colorfff svgShape"/><path fill="#ffffff" fill-rule="evenodd" d="M532.3 235.1h1788.4c9 0 16.3 7.3 16.3 16.3v1210.4c0 9-7.3 16.4-16.3 16.4H532.3c-9 0-16.3-7.4-16.3-16.4V251.4c-.1-9 7.2-16.3 16.3-16.3z" clip-rule="evenodd" class="colorfff svgShape"/><path fill="#62caeb" fill-rule="evenodd" d="M2337 362.1H515.9V251.4c0-9 7.3-16.3 16.3-16.3h1788.4c9 0 16.3 7.3 16.3 16.3v110.7z" clip-rule="evenodd" class="color62caeb svgShape"/><path fill="#e9708a" fill-rule="evenodd" d="M596.6 318c14.2 0 25.7-11.5 25.7-25.6 0-14.2-11.6-25.6-25.7-25.6S571 278.3 571 292.4c0 14.2 11.5 25.6 25.6 25.6z" clip-rule="evenodd" class="colore9708a svgShape"/><path fill="#fbb445" fill-rule="evenodd" d="M674.5 318c14.2 0 25.7-11.5 25.7-25.6 0-14.2-11.6-25.6-25.7-25.6s-25.6 11.5-25.6 25.6c0 14.2 11.5 25.6 25.6 25.6z" clip-rule="evenodd" class="colorfbb445 svgShape"/><path fill="#ffffff" fill-rule="evenodd" d="M753.3 318c14.1 0 25.6-11.5 25.6-25.6 0-14.2-11.6-25.6-25.6-25.6-14.2 0-25.7 11.5-25.7 25.6 0 14.2 11.6 25.6 25.7 25.6z" clip-rule="evenodd" class="colorfff svgShape"/><path fill="#38c551" fill-rule="evenodd" d="M2058.9 774.8h137.6v535.6h-137.6z" clip-rule="evenodd" class="color38c551 svgShape"/><path fill="#2c7efe" fill-rule="evenodd" d="M1850.3 864.9h137.6v445.6h-137.6z" clip-rule="evenodd" class="color2c7efe svgShape"/><path fill="#ffb044" fill-rule="evenodd" d="M1635.1 675.2h137.6v635.2h-137.6z" clip-rule="evenodd" class="colorffb044 svgShape"/><path fill="#e55c80" fill-rule="evenodd" d="M1426.7 514.1h137.4v796.3h-137.4z" clip-rule="evenodd" class="colore55c80 svgShape"/><path fill="#62cbec" fill-rule="evenodd" d="M2058.9 925h137.6v385.4h-137.6zM1850.3 989.8h137.6v320.7h-137.6zM1635.1 853.4h137.6v457h-137.6zM1426.7 737.4h137.4v573h-137.4z" clip-rule="evenodd" class="color62cbec svgShape"/><path fill="#e2567b" fill-rule="evenodd" d="M988.6 434c-132.2 0-239.5 107-239.5 239.5 0 132.2 107.3 239.5 239.5 239.5s239.5-107.3 239.5-239.5c0-132.5-107.2-239.5-239.5-239.5zm0 54.8c-101.9 0-184.7 82.7-184.7 184.7 0 101.9 82.7 184.5 184.7 184.5 101.9 0 184.7-82.5 184.7-184.5s-82.7-184.7-184.7-184.7z" clip-rule="evenodd" class="colore2567b svgShape"/><path fill="#2c7efe" fill-rule="evenodd" d="M1156.7 749.9l50.1 22.8c14.1-31.3 21.4-64.9 21.4-99.2 0-132.4-107.3-239.5-239.5-239.5v54.8c101.9 0 184.7 82.7 184.7 184.7-.1 27.1-6 53-16.7 76.4zM717.5 996.5h542.4c13.3 0 24 10.7 24 24 0 13.1-10.7 24-24 24H717.5c-13.1 0-24-10.9-24-24 0-13.3 10.9-24 24-24zM717.5 1092.3h542.4c13.3 0 24 10.7 24 24s-10.7 24-24 24H717.5c-13.1 0-24-10.7-24-24s10.9-24 24-24zM717.5 1194.8h542.4c13.3 0 24 10.9 24 24.1 0 13.1-10.7 24-24 24H717.5c-13.1 0-24-10.9-24-24 0-13.2 10.9-24.1 24-24.1zM717.5 1290.8h293.2c13.3 0 24 10.7 24 24s-10.7 24-24 24H717.5c-13.1 0-24-10.7-24-24s10.9-24 24-24z" clip-rule="evenodd" class="color2c7efe svgShape"/><path fill="#f69768" fill-rule="evenodd" d="m1422.5 1310.3-38.4 1.2-4.9 45.7h47.3z" clip-rule="evenodd" class="colorf69768 svgShape"/><path fill="#15489d" fill-rule="evenodd" d="M1481.3 1898.1c6.6 5.1 37.8 2.2 32.7 22.5-9.7 5.4-22.7 7.1-32.3 12.4-10.1 2.5-21.9 2.5-31.7-1.2-3.2-11.3-2.5-20.4 2.3-31.6l29-2.1zM1329.3 1900c-9.7 7.5-35.5 3.1-30.6 22.5 9.6 5.4 22.6 7.1 32.3 12.4 10.1 2.5 21.9 2.5 31.7-1.2 3.2-11.3 2.5-20.4-2.3-31.6l-31.1-2.1z" clip-rule="evenodd" class="color15489d svgShape"/><path fill="#f69768" fill-rule="evenodd" d="m1291.9 1386.2-45.9 9-86.6-26.5-4.4 12.5c25.4 14.7 63.3 42.7 76.2 44.2 6.1 2.8 38.2-3.1 69.4-8.6l-8.7-30.6z" clip-rule="evenodd" class="colorf69768 svgShape"/><path fill="#f69768" fill-rule="evenodd" d="M1163.8 1374.6l-2.5-7c-2.4-5.2-3.6-16.1-7.3-15.6-2.5.5.7 7.3-1.6 10.1-6.6 3.1-17.2-14.3-22.3-11.4-7.7 4.1-9.8 15.5-3.4 20.9 3.2 3.1 16.8 4.7 28.5 8.4l8.6-5.4zM1508.1 1385l45.9 9 86.6-26.4 4.4 12.5c-25.4 14.7-63.3 42.7-76.2 44.2-6.1 2.8-38.2-3.1-69.4-8.6l8.7-30.7z" clip-rule="evenodd" class="colorf69768 svgShape"/><path fill="#f69768" fill-rule="evenodd" d="m1636.2 1373.4 2.5-7c2.4-5.2 3.6-16.1 7.3-15.6 2.4.5-.7 7.3 1.6 10 6.6 3.1 17.2-14.3 22.3-11.4 7.7 4.1 9.8 15.5 3.4 20.9-3.2 3.1-16.8 4.7-28.5 8.4l-8.6-5.3z" clip-rule="evenodd" class="colorf69768 svgShape"/><path fill="#1bb89e" fill-rule="evenodd" d="M1334 1592.8c-16.4 91.4-3.1 204.7-4.7 307.1 11.7 5.9 23.9 5.7 30.9 2.2l18.3-152.3L1402 1649l32.8 98.4 17.6 151.2c2.7 11.2 26.4 3.5 29.3-1.2-3.1-101.6 9.4-211-9.3-304.7H1334z" clip-rule="evenodd" class="color1bb89e svgShape"/><path fill="#15489d" fill-rule="evenodd" d="M1403.4 1335.9h-1.2c-19 .2-35.4 4-53.2 9.1l-74 42.7c1.4 15.6 4.2 27.2 13.9 36.3 17.7-.8 36.3-5.2 53-2.6 8.4 77.8-7 128.6-13.9 181.5l65 7h2.8l7 1.3 5.6-1.3h2.8l67.7-3.8c-6.9-52.9-23.6-106.9-15.3-184.7 16.7-2.6 35.4 1.7 53 2.6 9.8-9 12.6-20.7 13.9-36.3l-73.9-42.7c-17.7-5.1-34.2-8.9-53.2-9.1z" clip-rule="evenodd" class="color15489d svgShape"/><path fill="#1b174f" fill-rule="evenodd" d="M1383.2 1317.8c-4.4 3.9-22.2-9.3-22.2-26.9 0-21.2-.5-13.2-4.7-33.3-3.7-17.5 4.8 1 8.2-19.9 2.9-17.7 13.3-23.1 28.3-18.3 6.6 2.2 32.1-5.1 33.4-3 11.7 18.5 24 7.5 24 31.3 0 10.4.2 32.8-6.3 39.3-6.8 6.9 7.4 22.2-13.7 31.8-.8 4.5-50.9 2.4-47-1z" clip-rule="evenodd" class="color1b174f svgShape"/><path fill="#4fbd9d" fill-rule="evenodd" d="M1798.1 1923.3c-36.4-46.1-111.1-134.7-112.8-130.9 6.8 5.5 85.5 99.2 107.2 142.7l5.6-11.8z" clip-rule="evenodd" class="color4fbd9d svgShape"/><path fill="#4fbd9d" fill-rule="evenodd" d="M1673 1779.5c4.1 1.5 9.3.4 12.9 4.1 3.6 3.7 5 8.6 4 13-4.4 1-9.3-.4-12.9-4.1-3.7-3.7-2.6-8.5-4-13zM1681.4 1811.1c2.6-1.8 4.3-5.3 8-5.8s7.2.8 9.3 3.3c-1.3 3-4.3 5.3-8 5.8s-6.1-2.2-9.3-3.3zM1697.6 1788.8c.8 2.2 3 3.9 2.8 6.6-.2 2.7-1.8 5-3.9 6-1.9-1.4-3-3.9-2.8-6.6.3-2.6 2.6-3.9 3.9-6zM1715.6 1797c-2.2 3.5-6.6 5.7-7.1 10.6-.5 4.8 1.4 9.2 4.7 11.8 3.7-1.8 6.6-5.7 7.1-10.5.5-4.9-3.1-7.8-4.7-11.9zM1691.9 1834.1c3.8-2.5 6.2-7.5 11.5-8.3 5.3-.8 10.4 1.2 13.4 4.8-1.9 4.3-6.2 7.5-11.5 8.3-5.4.8-8.8-3.1-13.4-4.8zM1737.9 1808.9c-3.5 4.7-10.1 7.4-11.4 14.2-1.3 6.8.9 13.4 5.2 17.5 5.6-2.2 10.1-7.4 11.4-14.2 1.3-6.9-3.4-11.5-5.2-17.5zM1697.3 1863.3c6.2-4.1 10.1-12.3 18.8-13.6 8.7-1.3 16.9 1.9 21.8 7.7-3.1 7-10.1 12.3-18.8 13.6-8.6 1.3-14.2-5-21.8-7.7zM1770.4 1823c-6 6.7-16.3 10-19.2 20.1-2.9 10.1-.4 20.4 5.6 27.2 8.8-2.5 16.3-10 19.2-20.1 2.9-10.1-3.7-17.8-5.6-27.2zM1705.9 1897c9.6-5 16.5-16.2 29.3-16.7 12.8-.4 24.1 5.5 30.3 14.7-5.6 9.6-16.5 16.2-29.3 16.7-12.7.4-19.8-9.6-30.3-14.7zM1810.5 1924.6c-7.2-79.2-26.4-234.9-31.2-231.9 3.6 11.3 23.6 175.7 16.1 241l15.1-9.1z" clip-rule="evenodd" class="color4fbd9d svgShape"/><path fill="#4fbd9d" fill-rule="evenodd" d="M1775 1669c3.6 4.7 10.2 7.4 11.6 14.2 1.4 6.8-.8 13.5-5.1 17.7-5.6-2.1-10.2-7.4-11.6-14.2-1.4-6.9 3.3-11.6 5.1-17.7zM1761.2 1711.1c4.3-.1 8.8-2.8 13.4-.7 4.6 2.2 7.6 6.3 8.1 10.6-3.7 2.4-8.8 2.8-13.4.7-4.6-2.1-5.3-6.9-8.1-10.6zM1796 1697.8c-.6 3.1.6 6.6-1.7 9.5-2.3 2.9-5.7 4.3-8.8 4-1.1-3-.6-6.6 1.7-9.5 2.2-2.9 5.8-2.6 8.8-4zM1810.4 1720.3c-5 2.3-11.7 1.6-15.9 6.7-4.2 5.1-5.3 11.5-3.5 16.9 5.6.7 11.7-1.6 15.9-6.7 4.1-5 2.3-11 3.5-16.9zM1756 1745c6.2-.1 12.6-4 19.2-.9s10.9 9 11.7 15.3c-5.3 3.4-12.6 4-19.2.9s-7.7-10-11.7-15.3zM1826.9 1750.3c-7.4 2.7-16.9 1-23.4 7.7s-8.9 15.8-7 23.7c7.9 1.7 16.9-1 23.4-7.7 6.5-6.8 4.6-15.5 7-23.7zM1740.6 1782.1c10.1-.2 20.5-6.5 31.3-1.5s17.7 14.7 19 24.9c-8.6 5.6-20.5 6.5-31.3 1.5-10.7-5-12.4-16.3-19-24.9zM1853.3 1790.3c-11.7 3.1-25.9-.8-36.7 8.6-10.8 9.4-15.6 22.9-13.7 35.1 11.8 3.6 25.9.8 36.7-8.6 10.8-9.3 9-22.9 13.7-35.1zM1725.5 1826.6c14.6 1.4 30.7-6.2 45.6 2.8 14.8 9 23.3 24.1 23.6 39.1-13.4 6.7-30.7 6.2-45.6-2.8-14.9-9-15.5-25.6-23.6-39.1z" clip-rule="evenodd" class="color4fbd9d svgShape"/><path fill="#4fbd9d" fill-rule="evenodd" d="M1822.3 1933.5c19.9-67.5 54.9-201.8 50-200.9-.7 10.5-37.9 152.3-65.4 203.5l15.4-2.6z" clip-rule="evenodd" class="color4fbd9d svgShape"/><path fill="#4fbd9d" fill-rule="evenodd" d="M1876.5 1711.7c1.4 5 6 9.4 4.9 15.5-1.1 6.1-5 10.8-9.9 12.8-4-3.6-6-9.4-4.9-15.5 1-6 6.5-8.3 9.9-12.8zM1851.4 1741.8c3.6 1.3 8.1.6 11.2 3.8 3.1 3.3 4.2 7.6 3.2 11.4-3.8.8-8.1-.6-11.2-3.8-3.1-3.3-2.1-7.4-3.2-11.4zM1884.4 1742.3c-1.5 2.3-1.7 5.6-4.5 7.3-2.8 1.7-6.1 1.7-8.6.4.1-2.8 1.7-5.6 4.5-7.3 2.8-1.7 5.6-.3 8.6-.4zM1888.9 1765.5c-4.9.3-10.2-2.5-15.2.3-5.1 2.8-8.1 7.7-8.4 12.7 4.4 2.4 10.2 2.5 15.2-.3s5.5-8.3 8.4-12.7zM1836.1 1768c5.1 1.9 11.7.8 16.1 5.5 4.4 4.7 6 11 4.6 16.4-5.5 1.1-11.7-.8-16.1-5.5-4.4-4.7-3-10.8-4.6-16.4zM1892.6 1795.5c-7-.2-14.2-4.7-21.8-1.3-7.6 3.4-12.5 10.1-13.4 17.2 6 4 14.2 4.7 21.8 1.3 7.5-3.4 8.8-11.3 13.4-17.2zM1811.3 1793.5c8.3 3.2 19 1.3 26.3 9 7.2 7.7 9.8 17.9 7.5 26.7-8.9 1.8-19-1.3-26.3-9-7.2-7.7-4.9-17.5-7.5-26.7zM1901.3 1837c-10.6-1.2-21-9.1-32.9-4.9-12 4.2-20.3 13.7-22.8 24.4 8.6 6.8 21 9.1 33 4.9 11.9-4.2 14.9-15.9 22.7-24.4zM1784.4 1825.2c11.6 5.9 27.3 4.9 36.6 17.2 9.3 12.2 11.3 27.4 6.6 39.8-13.2 1.2-27.3-4.9-36.6-17.1-9.3-12.3-4.4-26.2-6.6-39.9z" clip-rule="evenodd" class="color4fbd9d svgShape"/><g fill="#000000" class="color000 svgShape"><path fill="#16b79e" fill-rule="evenodd" d="M287.4 1866.5c-18.7-10.7-44.9-47.4-47.6-80.1-.9-10-3.8-44.7 16.3-45.8 9.8 7.1 10.9 34.1 29.4 21.3 7.1-8.9-23.7-15.7-23-26.7 2.8-14.7 21.5-36.1 38.7-34.2 5.8 4.8 4.2 47.7 14.1 47.9 9.3-2.2-4-26.8-5.9-40.2-.6-13.7 21.4-18.3 34.5-22.5-6.8 16.2-9.3 30.7-3.3 32 14.9 1.6-2.6-24.4 3.3-32 18.9-6 21.5-15.2 32.4-11.6 8.2 11.2 11.7 16.6 12.8 29.8 1.7 28.7-43.2 34.5-37.9 42.7 7.5 4.6 30-20.4 34.7-17.9 10.6 3.4 13 26.3 5.7 32.8-10.9 9.6-49.2 12.8-48.4 20.8.9 9.9 43.4-13.1 55.8-1.2 9.3 10.7 6.7 31.1 2.6 44.3-2 19-61.9-12.6-65-6.5 1.5 17.9 67.7 14.6 53.8 39.6-8.7 12.8-23.5 17.1-38.2 20.5-22.8 4.9-51.6-5-64.8-13zm83-75.7c-2-1.3-4.8-.5-6.2 1.7-1.4 2.2-1 5.1 1.1 6.4 2 1.3 4.8.5 6.3-1.8 1.3-2.1.8-5-1.2-6.3zm-55.1-14.8c1.2 7.2-7.8 1.5-9.3-2.2-2.7-4.2-5.5-10.9-2.1-15.3 6.4.2 9.6 8.5 11.4 17.5zm-18.9 24.2c5.7-9.1-12.4-21.5-17.8-19-4 3.6 12.1 24.2 17.8 19zm34.4 37.6c3.4 2-2.2 3.8-4.3 3.1-2.7-.4-6.6-1.6-7.2-4.6 2.4-2.6 7.1-1 11.5 1.5zm29.8-86.6c-4.3-1.4-9.5 1.8-12.6 4.7.7 3.3 5.5 1.9 8.6 1.3 3.4-.5 6.5-4 4-6z" clip-rule="evenodd" class="color16b79e svgShape"/><path fill="#4b76ba" d="M269.1 1934.6c-1.1-.4-1.7-1.5-1.4-2.6 8.6-39.6 20.4-78.2 34.9-114.7 16.4-41.2 37-81.2 61.2-119 .7-1.1 2.1-1.4 3.2-.7s1.4 2.1.7 3.2c-45.9 71.6-77.1 147.6-95.5 232.2-.3 1.2-1.5 2-2.7 1.8-.2-.1-.3-.1-.4-.2z" class="color4b76ba svgShape"/><path fill="#4b76ba" d="M333.2 1756.3c-.4-.1-.8-.4-1-.8-5.7-7.6-9.1-15.8-10.4-24.3-1.1-7.9-.4-16.3 2.3-24.7.4-1.2 1.7-1.9 2.9-1.5 1.2.4 1.9 1.7 1.5 2.9-5.2 16.3-2.7 31.4 7.4 44.9.8 1 .5 2.5-.5 3.2-.7.5-1.5.6-2.2.3zM300 1830.3s-.1 0-.1-.1c-29-12.6-45.8-36.9-48.4-70.1-.1-1.3.8-2.4 2.1-2.5 1.3-.1 2.4.8 2.5 2.1 2.5 31.5 18.3 54.4 45.7 66.3 1.2.5 1.7 1.9 1.2 3-.6 1.2-1.9 1.8-3 1.3zM334.2 1806.2c-6.5-2.4-13.2-5.7-20.6-10.1-1.1-.6-1.4-2.1-.8-3.1.6-1.1 2.1-1.4 3.1-.8 25.6 15.2 45.7 17.9 69.4 9.3 1.2-.4 2.5.2 2.9 1.4.4 1.2-.2 2.5-1.4 2.9-13.4 4.9-26 6.2-38.4 4.2-4.6-.7-9.3-2-14.2-3.8z" class="color4b76ba svgShape"/><g fill="#000000" class="color000 svgShape"><path fill="#4b76ba" d="M310.6 1860.9c-7.4-2.7-13.5-6.5-18.6-10.2-1-.7-1.2-2.2-.5-3.2s2.2-1.2 3.2-.5c14.4 10.5 36.2 20.7 77.1 6.3 1.2-.4 2.5.2 2.9 1.4.4 1.2-.2 2.5-1.4 2.9-28.5 10-48.2 8.6-62.7 3.3z" class="color4b76ba svgShape"/></g><g fill="#000000" class="color000 svgShape"><path fill="#62caeb" fill-rule="evenodd" d="M238.8 1872.3c-21.1 4.4-65-5.7-88.7-28.5-7.3-6.9-32.5-30.9-18.2-45.1 12-1.2 30.7 18.3 36-3.6-.6-11.3-28.1 3.9-34.9-4.7-7.7-12.9-7.9-41.3 6.3-51.2 7.6-.2 34.8 33 42.3 26.5 5.5-7.9-20.8-17.4-31.1-26.2-9.5-9.9 3.9-27.9 10.9-39.7 5.6 16.7 13.3 29.1 18.8 26.1 12.1-8.7-18.1-16.5-18.8-26.1 10.2-17.1 6-25.6 16.5-30.2 13.6 3 19.8 4.7 29.4 13.8 20.3 20.3-9.5 54.5-.1 57.1 8.7-1.5 8.9-35.1 14.1-36.4 10.2-4.5 27.3 11.1 26 20.8-1.8 14.4-28.3 42.3-22.5 47.7 7.3 6.8 23.8-38.6 41-37.9 14.1 1.9 25.6 18.8 31.4 31.4 11.1 15.5-54.7 31.6-53 38.2 13 12.5 60.3-34 66.5-6 2 15.3-6.2 28.4-15 40.7-13.6 18.9-41.7 30.6-56.9 33.3zm11.9-111.7c-2.4.4-3.9 2.8-3.5 5.4.4 2.6 2.7 4.5 5 4.1 2.4-.4 4-2.8 3.6-5.4-.4-2.6-2.7-4.4-5.1-4.1zm-51 25.5c5.7 4.6-4.9 6.3-8.4 4.5-4.8-1.3-11.3-4.5-11.7-10.1 4.8-4 12.8 0 20.1 5.6zm1.8 30.7c-1.7-10.6-23.5-7.9-25.9-2.5-.6 5.4 25.1 10.1 25.9 2.5zm50.7 5.3c4-.7.9 4.3-1.1 5.1-2.3 1.5-6 3.2-8.4 1.3.1-3.4 4.6-5.3 9.5-6.4zm-35.1-84.6c-4.1 1.8-6 7.7-6.3 11.9 2.7 2 5.4-2.3 7.3-4.8 2.2-2.6 2.2-7.2-1-7.1z" clip-rule="evenodd" class="color62caeb svgShape"/></g><g fill="#000000" class="color000 svgShape"><path fill="#4b76ba" d="M268.4 1936c-.6-.2-1.2-.7-1.5-1.3-19.8-35.4-36.6-72.1-50-109.1-15-41.7-26.2-85.4-33.1-129.8-.2-1.6.8-3 2.4-3.3 1.6-.2 3 .8 3.3 2.4 13.2 84 40.1 161.5 82.4 236.9.8 1.4.3 3.1-1.1 3.9-.8.6-1.6.6-2.4.3z" class="color4b76ba svgShape"/><path fill="#4b76ba" d="M190.1 1757.8c-5.9-2.2-11.1-5.2-15.7-9-6.2-5.2-11.2-12-14.8-20.3-.6-1.4 0-3.1 1.5-3.8 1.4-.6 3.1 0 3.8 1.5 6.9 15.5 18.6 25 34.9 28.4 1.6.3 2.5 1.8 2.2 3.4-.3 1.6-1.8 2.5-3.4 2.2-2.9-.6-5.8-1.4-8.5-2.4zM172.3 1837.3c-11.1-4.1-21.6-10.8-31.4-20.3-1.1-1.1-1.2-2.9-.1-4.1 1.1-1.1 2.9-1.2 4.1-.1 22.6 21.7 49.5 28.4 77.6 19.2 1.5-.5 3.1.3 3.6 1.8s-.3 3.1-1.8 3.6c-18.1 6-35.6 5.9-52-.1zM210.3 1802.7c-.9-.3-1.6-1.1-1.8-2.2-.3-1.6.7-3.1 2.3-3.4 29.1-5.6 45.8-16.8 57.7-38.7.8-1.4 2.5-1.9 3.9-1.1 1.4.8 1.9 2.5 1.1 3.9-6.9 12.6-15.4 22.1-26.2 28.8-9.4 5.9-20.6 10-35.5 12.8-.5.2-1 .1-1.5-.1zM230.4 1857.9c-1-.4-1.8-1.3-1.9-2.4-.2-1.6 1-3 2.6-3.1 17.6-1.7 40.6-8.4 61.4-46.1.8-1.4 2.5-1.9 3.9-1.1 1.4.8 1.9 2.5 1.1 3.9-10.1 18.2-21.4 30.9-34.5 39-12 7.4-23.1 9.2-31.5 10-.3 0-.7-.1-1.1-.2z" class="color4b76ba svgShape"/></g></g><g fill="#000000" class="color000 svgShape"><path fill="#09a98e" d="m946.4 1931.9-3.6-1.2c28.2-84.5 40.3-204.4 3.8-281.7l3.5-1.6c17.2 36.3 25 85.3 22.5 141.5-2.1 47.8-11.4 98.6-26.2 143z" class="color09a98e svgShape"/><path fill="#09a98e" d="M943 1932.3c-38.2-80.5-112.5-175.3-192.4-205.8l1.4-3.6c37.6 14.3 77.1 44.2 114.3 86.4 31.7 36 60.1 79 80.2 121.3l-3.5 1.7z" class="color09a98e svgShape"/><path fill="#09a98e" d="m946.5 1931.2-3.8.3c-6-88.9-40.2-204.4-103.3-262.1l2.6-2.8c29.7 27.1 55.4 69.5 74.5 122.4 16.2 45 26.9 95.5 30 142.2z" class="color09a98e svgShape"/><path fill="#16b79e" fill-rule="evenodd" d="M952.9 1658.6c-7.8-4.2-14.6-5.2-20.7-12.6-6.1-7.4-7.8-21.2-2.6-24.1 4.2-3.1 16.6 3.7 20.7 12.6 4.1 8.9 2.2 14.7 2.6 24.1zM963.2 1693.1c-7 3.9-11.2 8.5-19.8 9.4-8.6.9-19.9-4.6-19.6-10-.3-4.8 11.1-10.7 19.8-9.4 8.8 1.3 12.2 5.6 19.6 10zM963.5 1693c7.8 1.8 13.1 5.1 21.7 3.6 8.6-1.5 17.9-9.9 16.1-15-1.1-4.7-13.6-7.3-21.7-3.6-8.1 3.7-10.3 8.7-16.1 15zM969.4 1731c-7 3.9-11.2 8.5-19.8 9.4-8.6.9-19.9-4.6-19.6-10-.3-4.8 11.1-10.7 19.8-9.4 8.8 1.4 12.3 5.6 19.6 10zM969.7 1730.9c7.8 1.8 13.1 5.1 21.7 3.6 8.6-1.5 17.9-9.9 16.1-15-1-4.7-13.6-7.3-21.7-3.6-8.1 3.7-10.2 8.7-16.1 15zM971.3 1769.2c-7.2 3.4-11.7 7.8-20.4 8.2-8.7.4-19.6-5.8-18.9-11.1 0-4.8 11.7-10.1 20.3-8.2 8.7 1.8 11.9 6.2 19 11.1zM971.6 1769c7.7 2.2 12.8 5.9 21.4 4.9 8.6-1 18.5-8.8 16.9-14-.8-4.7-13.1-8.1-21.4-4.9-8.3 3.2-10.7 8.1-16.9 14zM969.3 1809.1c-7.5 2.9-12.2 7-20.9 6.8-8.7-.2-19.2-7.1-18.1-12.4.3-4.8 12.4-9.2 20.9-6.8 8.5 2.4 11.4 7.1 18.1 12.4zM969.6 1809c7.5 2.8 12.3 6.7 21 6.4 8.7-.4 19-7.5 17.9-12.7-.4-4.8-12.5-9-21-6.4-8.5 2.5-11.3 7.2-17.9 12.7zM965.2 1845.1c-7.8 1.8-13 5.2-21.6 3.8-8.6-1.4-18-9.8-16.2-14.8 1-4.7 13.5-7.4 21.6-3.8 8.1 3.6 10.3 8.6 16.2 14.8zM965.5 1845.1c7.1 3.8 11.3 8.4 19.9 9.3 8.6.8 19.9-4.8 19.5-10.1.2-4.8-11.1-10.6-19.9-9.3-8.7 1.3-12.2 5.6-19.5 10.1zM761.8 1729.1c-8.5 2.4-14.1 6.4-23.7 5.2-9.5-1.1-20.3-9.9-18.6-15.6.9-5.2 14.6-8.8 23.7-5.2 9.1 3.6 11.8 9 18.6 15.6zM793.1 1746.8c-2.4 7.7-2.2 13.9-7.8 20.5-5.6 6.7-17.6 10.5-21 6.4-3.5-3.2.6-15.4 7.8-20.5s12.6-4.5 21-6.4zM793.2 1746.5c6.9-4.2 13-5.4 18.1-12.4 5.2-7 6-19.5 1.2-21.9-4-2.6-14.8 4.2-18.1 12.4-3.2 8.2-1.3 13.4-1.2 21.9zM823.8 1769.9c-2.4 7.7-2.2 13.9-7.8 20.5-5.6 6.7-17.6 10.5-21 6.4-3.5-3.2.5-15.4 7.8-20.5 7.3-5.2 12.7-4.5 21-6.4zM824 1769.5c6.9-4.1 13-5.4 18.1-12.4 5.1-7 6-19.6 1.2-21.9-4-2.6-14.8 4.2-18.1 12.4-3.3 8.2-1.4 13.4-1.2 21.9zM851.6 1796.1c-2.8 7.5-3 13.7-9 20-6 6.3-18.1 9.4-21.4 5.1-3.3-3.4 1.5-15.4 9-20 7.6-4.7 13-3.7 21.4-5.1zM851.8 1795.7c7.1-3.7 13.3-4.6 18.8-11.3 5.6-6.7 7.2-19.2 2.5-21.8-3.8-2.9-15.1 3.3-18.8 11.3-3.8 8.1-2.1 13.3-2.5 21.8zM877.9 1826.2c-3.4 7.3-4 13.5-10.4 19.4-6.4 5.9-18.8 8.1-21.7 3.6-3.1-3.7 2.5-15.2 10.4-19.3 7.8-4.2 13.1-2.9 21.7-3.7zM878 1825.9c7.4-3.2 13.6-3.7 19.6-9.9 6-6.3 8.5-18.6 4-21.6-3.6-3.1-15.2 2.2-19.6 9.9-4.2 7.8-3 13.1-4 21.6zM899.9 1855.1c-4.4 6.7-5.8 12.8-13 17.7-7.2 4.9-19.7 5.4-21.9.5-2.5-4.1 4.7-14.7 13-17.7s13.3-.9 21.9-.5z" clip-rule="evenodd" class="color16b79e svgShape"/><path fill="#16b79e" fill-rule="evenodd" d="M900.1 1854.8c7.7-2.2 13.9-1.7 20.8-7.1 6.8-5.4 11.1-17.2 7-20.8-3.1-3.6-15.4.1-20.8 7.1-5.3 7.1-4.8 12.5-7 20.8z" clip-rule="evenodd" class="color16b79e svgShape"/><path fill="#4fbd9d" fill-rule="evenodd" d="M848.9 1675.9c-8.8-.9-15.5.7-23.9-3.8-8.4-4.6-15.3-16.6-11.6-21.3 2.7-4.5 16.8-2.8 23.9 3.8 7.2 6.6 7.6 12.7 11.6 21.3zM871.5 1703.9c-5.1 6.2-7.1 12.1-14.8 16.2-7.6 4.1-20.2 3.3-21.9-1.8-2.1-4.3 6.2-14.1 14.8-16.3 8.6-2 13.4.6 21.9 1.9zM871.7 1703.6c7.9-1.3 14-.2 21.4-4.9 7.4-4.6 12.8-15.9 9.2-19.9-2.7-3.9-15.3-1.6-21.4 4.9-6.1 6.5-6.2 11.9-9.2 19.9zM891.6 1736.6c-5 6.3-7.1 12.1-14.8 16.3-7.7 4.1-20.2 3.3-21.9-1.8-2.1-4.3 6.2-14.1 14.8-16.3s13.4.5 21.9 1.8zM891.8 1736.4c7.9-1.3 14.1-.2 21.4-4.9 7.4-4.6 12.8-16 9.2-19.9-2.7-3.9-15.3-1.6-21.4 4.9-6.1 6.4-6.1 11.9-9.2 19.9zM907.8 1771.2c-5.4 5.9-7.8 11.7-15.7 15.3-7.9 3.7-20.3 2.1-21.7-3.1-1.8-4.4 7-13.7 15.7-15.3 8.7-1.6 13.3 1.3 21.7 3.1zM908.1 1771c8-.9 14 .6 21.7-3.6 7.6-4.2 13.7-15.2 10.4-19.4-2.5-4.1-15.2-2.5-21.7 3.6s-7 11.5-10.4 19.4zM921.1 1808.9c-5.8 5.5-8.6 11.1-16.8 14.2-8.1 3.1-20.4.6-21.5-4.6-1.5-4.5 7.9-13.2 16.8-14.2 8.8-1 13.3 2.2 21.5 4.6zM921.4 1808.7c8-.3 14 1.6 21.9-2.1 7.9-3.6 14.8-14.2 11.7-18.6-2.2-4.2-15-3.6-21.9 2.1-6.9 5.6-7.7 11-11.7 18.6zM931 1843.8c-6.5 4.7-10.1 9.8-18.6 11.7-8.5 1.9-20.3-2.2-20.6-7.6-.8-4.7 9.7-11.9 18.6-11.7 8.8.3 12.8 4.1 20.6 7.6zM931.3 1843.6c8 .8 13.6 3.5 21.9 1 8.3-2.5 16.6-12 14.2-16.8-1.6-4.5-14.4-5.6-21.9-1-7.6 4.7-9.2 9.9-14.2 16.8z" clip-rule="evenodd" class="color4fbd9d svgShape"/></g><path fill="#ffffff" d="m528.9 780.9 9.4 30.5 30.5 9.4-30.5 9.4-9.4 30.5-9.3-30.5-30.5-9.4 30.5-9.4zM1908.6 1522.8l9.4 30.5 30.5 9.3-30.5 9.4-9.4 30.5-9.4-30.5-30.5-9.4 30.5-9.3zM1425 196.7l6.7 21.9 21.9 6.7-21.9 6.7-6.7 21.9-6.8-21.9-21.8-6.7 21.8-6.7zM2380.2 925.1l6.8 21.9 21.9 6.7-21.9 6.8-6.8 21.8-6.7-21.8-21.9-6.8 21.9-6.7zM247.1 896.5l6.7 21.9 21.9 6.7-21.9 6.7-6.7 21.9-6.7-21.9-21.9-6.7 21.9-6.7z" class="colorfff svgShape"/><g fill="#000000" class="color000 svgShape"><path fill="#0643a3" fill-rule="evenodd" d="M334.1 1693h12.3v220h-12.3zM468.4 1693h12.3v220h-12.3zM547.4 1691h12.3v220h-12.3z" clip-rule="evenodd" class="color0643a3 svgShape"/><path fill="#0643a3" fill-rule="evenodd" d="M299.8 1498.5h123.9c4.9 0 9.5 4.2 10.1 9.3 4.7 38 9.3 75.5 13.9 112.4 4.5 36.4 8.9 72.3 13.3 107.7l-67.8.3-68 .3c-5.3-35.5-10.7-71.5-16.2-108-5.5-37-11.1-74.6-16.8-112.6-.7-5.3 2.7-9.4 7.6-9.4z" clip-rule="evenodd" class="color0643a3 svgShape"/><path fill="#2c7efe" fill-rule="evenodd" d="M311 1498.5h123.9c4.9 0 9.4 4.2 10.1 9.3 4.7 38 9.3 75.5 13.8 112.4 4.5 36.4 8.9 72.3 13.3 107.7l-67.8.3-67.9.3c-5.3-35.5-10.7-71.5-16.2-108-5.5-37-11.2-74.6-16.9-112.6-.7-5.3 2.7-9.4 7.7-9.4z" clip-rule="evenodd" class="color2c7efe svgShape"/><path fill="#0643a3" fill-rule="evenodd" d="M327.7 1697.6H550.7l3.7 30.2-67.8.3-44.2.2h-23.7l-.1-.3-18.4.1-44.2.2h-23.7l-4.6-30.7z" clip-rule="evenodd" class="color0643a3 svgShape"/></g><path fill="#2c7efe" fill-rule="evenodd" d="m582.6 1857.4 16.3 16.1c24.8 6.5 83.9 1.5 74.5 19.4-32.7 5.5-65.4 10.9-98 16.4-3.9-6.8-4.8-19.9-.9-30.8l8.1-21.1z" clip-rule="evenodd" class="color2c7efe svgShape"/><path fill="#ff9966" fill-rule="evenodd" d="M593.3 1823.4l-33.1 3.6 14.2 51.5c5.1 2.3 18 3.5 24.4-5l-5.5-50.1zM456.6 1482.1l16.6-33.1 45.1 12.4c19.7-29.6 39.3-59.2 59-88.8 2.5-8 3.5-20.9 7.3-24 8.8-5 31.1-21 29.9-13.8-.2 2.3-13.6 11.2-16.7 18.9 3.1 6.1 16.8 12.1 9.4 18.2l-17.5 11.7c-20.9 36.6-48.2 109.7-62.6 110-8.6.8-47-7.7-70.5-11.5z" clip-rule="evenodd" class="colorf96 svgShape"/><path fill="#0ebaa0" fill-rule="evenodd" d="m400.4 1427.9 28.9 2.2c24.1 3.8 56.4 21.6 66 23.5 5.9 13.7.5 25.2-6.4 35.7-9.2-1-27.4-3.4-41.1-5.1l5.8 155.9-92.2-2.4 4.8-133.7.2-14c6.9-53.5-19.6-50.3 9.2-57.4 8.1-2 10.6-2.6 24.8-4.7z" clip-rule="evenodd" class="color0ebaa0 svgShape"/><path fill="#ff9966" fill-rule="evenodd" d="m393.2 1392.1 30.9 8.4c.1 10.5.1 20.9.2 31.4-6.6 27.2-25.6 4.2-29.5.1l-1.6-39.9z" clip-rule="evenodd" class="colorf96 svgShape"/><path fill="#ffab81" fill-rule="evenodd" d="M443.1 1338.4c9.2 7.9 2.5 20.9 12.8 30.4 20.9 19.2-3.5 11.7-3.4 18.5.2 15.8-3.2 18.3-13.1 32.2-4.7 6.6-33.8 14.2-49.8-16-3.7-7.1-3.4-10.8-3.6-25.8-.3-32 1.2-35.4 32-49.2 19.7-8.9 33.3 3.5 25.1 9.9z" clip-rule="evenodd" class="colorffab81 svgShape"/><path fill="#ffffff" fill-rule="evenodd" d="M424.6 1407.1c7.3.7 12.6 3.3 21.1-.9-7.6 13.8-16.7 5.2-21.1.9z" clip-rule="evenodd" class="colorfff svgShape"/><path fill="#060352" fill-rule="evenodd" d="M393.5 1371.5c-7.5 6.1 4.2 16.7-6.7 24.6-21.6-10.7-11.6-29.8-25.8-61.3l7.7 4.3c6.3 1 11.6-39.6 28.6-48v19c8.8.6 16.1-35.7 33.4-40.1-.6 8.1-1.2 16.1-1.8 24.2 8 4.2 22.6-14.1 39.1-8.2l-10.9 17.4c1.9 12.1 17.8-1.6 29.5 15.4-18.5.5-30.6 20.3-48.2 22.5l-37.6 9.8c-1.5 11.1 8.6 20 6.3 29.7-4.6-3.2-9.1-6.2-13.6-9.3z" clip-rule="evenodd" class="color060352 svgShape"/><path fill="#84b2fe" fill-rule="evenodd" d="m509.5 1869 13.4 18.5c23.4 10.4 82.5 15.1 70.4 31.2-33.1 0-66.3.1-99.4.2-2.7-7.3-1.4-20.4 4.1-30.5l11.5-19.4z" clip-rule="evenodd" class="color84b2fe svgShape"/><path fill="#ff9966" fill-rule="evenodd" d="m525.6 1837.2-33.2-1.8 5.6 53.1c4.6 3.1 17.2 6.4 24.9-.9l2.7-50.4z" clip-rule="evenodd" class="colorf96 svgShape"/><path fill="#2c7efe" fill-rule="evenodd" d="m494.3 1697.6-44.2-57.5c41.1 3.7 112.5 7 124.1 15.8 22 15.8 22.3 156.5 27.3 204.5l-38.9 1.2-18.7-164h-49.6z" clip-rule="evenodd" class="color2c7efe svgShape"/><path fill="#84b2fe" fill-rule="evenodd" d="M366.3 1632.7c27.7.7 55.4 1.4 83.2 2.2 25.3 5.9 63.9 12.5 71.6 25.5 12.9 29.6 7.5 161.8 6.4 204.7l-36.4.6-15.3-168H368.3c-15.6-8.4-15.3-43-2-65z" clip-rule="evenodd" class="color84b2fe svgShape"/><path fill="#ff9966" fill-rule="evenodd" d="m375.5 1631.6 7.7 6.4c5.4 5.4 18.7 11.8 16.3 16.3-1.8 2.9-8.8-4.2-13.4-2.6-6.9 6.9 10.2 28.1 4.3 33.2-8.7 7.8-24 5.4-27.9-5.2-2.5-5.5 1.8-23.4 2.4-39.8l10.6-8.3z" clip-rule="evenodd" class="colorf96 svgShape"/><path fill="#ff9966" fill-rule="evenodd" d="m379.5 1493.2-34.4 1-1.1 56.1 22.8 97.1 18-2.3-11.9-92.6z" clip-rule="evenodd" class="colorf96 svgShape"/><path fill="#0ebaa0" fill-rule="evenodd" d="M374.5 1445.1c-3.8-2.7-5.4-9.8-10.4-8.8-17.5 3.8-21.8 54.5-21.7 65.3 6 4.9 26.2 9.2 39.4 2.2l-7.3-58.7z" clip-rule="evenodd" class="color0ebaa0 svgShape"/><g fill="#000000" class="color000 svgShape"><path fill="#00aeef" fill-rule="evenodd" d="M471.1 1466.8c24.7.1 49.4.2 74 .2 24.6.1 49.2.1 73.8.2 1.9 0 3.1 1.5 2.8 3.4-3.5 20.2-7 40.3-10.5 60.3s-6.9 39.9-10.4 59.8c-.3 1.8-2.1 3.3-3.9 3.3H450.3c-1.8 0-3.1-1.5-2.8-3.3 3.2-20 6.5-40 9.8-60 3.3-20.1 6.5-40.3 9.8-60.6.4-1.8 2.2-3.3 4-3.3z" clip-rule="evenodd" class="color00aeef svgShape"/><path fill="#62cbec" fill-rule="evenodd" d="M479.8 1466.8c24.7.1 49.4.2 74 .2 24.6.1 49.2.1 73.8.2 1.9 0 3.2 1.5 2.8 3.4-3.5 20.2-7 40.3-10.5 60.3s-6.9 39.9-10.3 59.8c-.3 1.8-2.1 3.3-4 3.3H459c-1.8 0-3.1-1.5-2.8-3.3 3.2-20 6.5-40 9.8-60 3.3-20.1 6.6-40.3 9.8-60.6.3-1.8 2.1-3.3 4-3.3z" clip-rule="evenodd" class="color62cbec svgShape"/><path fill="#ffffff" fill-rule="evenodd" d="M541.2 1522.6c.4-.1.8-.2 1.1-.2-.2.9-.1 1.7.1 2.6.9 4.1 5.5 6.5 10.2 5.5.5-.1 1.1-.3 1.5-.5.9 5-3 10-8.8 11.3-6 1.3-11.7-1.8-12.9-6.9-1-5.2 2.9-10.5 8.8-11.8z" clip-rule="evenodd" class="colorfff svgShape"/></g><g fill="#000000" class="color000 svgShape"><path fill="#dfcffd" fill-rule="evenodd" d="M237.4 1630.7h16.1v303.9h-16.1zM706.4 1630.7h16.1v303.9h-16.1z" clip-rule="evenodd" class="colordfcffd svgShape"/><path fill="#be96f8" fill-rule="evenodd" d="M209.2 1608h541v32h-541z" clip-rule="evenodd" class="colorbe96f8 svgShape"/><path fill="#dfcffd" fill-rule="evenodd" d="M200.1 1591.6h559.2l-9.1 24.4h-541z" clip-rule="evenodd" class="colordfcffd svgShape"/></g><path fill="#0ebaa0" fill-rule="evenodd" d="M837.6 1933.2c.5-2.8 1.2-5.5 2.2-8.2 1 5.9 1.7 12 1.9 18-1.2-3.3-2.6-6.6-4.1-9.8zm-651.7 0c.6-2.8 1.3-5.5 2.2-8.2 1 5.9 1.7 12 2 18-1.2-3.3-2.6-6.6-4.2-9.8zm335.5 0c.6-2.8 1.3-5.5 2.2-8.2 1 5.9 1.7 12 2 18-1.2-3.3-2.6-6.6-4.2-9.8zm161 0c-.5-2.8-1.2-5.5-2.2-8.2-1 5.9-1.7 12-1.9 18 1.1-3.3 2.5-6.6 4.1-9.8zm-9.7-24.9c-2.3-3.8-5-7.7-8.2-11.5-2.2 6.7-3.7 13.4-4.9 20.2 1.9 3.3 3.5 6.8 4.9 10.4 2.3-6.4 5-12.8 8.2-19.1zm-7.9-12.3c3.5 2.8 6.7 5.8 9.6 9 3.1-5.6 6.5-11 10.6-16.2-1.7-2.1-3.3-4.1-5.2-6 2.2 1.5 4.2 3.1 6.1 4.8 5.9-7.5 12.8-14.6 21-21 1.9-3.3 3.8-6.7 6-10-1 2.6-2 5.1-2.8 7.6.3-.2.5-.3.7-.5-.3.3-.5.6-.8 1-5.1 15.1-7.1 29-6.9 41.9 3.1 4.4 5.7 9 8 13.5 2-10.2 5.1-20.4 9.6-30.5-1.8-2.2-3.6-4.4-5.7-6.7 2.3 1.6 4.5 3.3 6.5 5.1 2.6-5.5 5.6-10.9 9.2-16.2-2.2-2.7-4.3-5.4-6.8-8.1 2.8 2.1 5.5 4.2 8.1 6.4 2.9-4.1 6-8.1 9.6-12.1-2.8 4.9-5.3 9.5-7.2 14.2 3.7 3.5 7.2 7 10.5 10.6 3.4-5.3 7.3-10.5 11.6-15.6-4.3-7-9.5-14.2-15.7-21.4 7.2 5.5 13.6 11.3 19.3 17.5 5.7-6.2 12.1-12 19.4-17.5-6.2 7.2-11.4 14.4-15.8 21.4 4.3 5.1 8.3 10.3 11.7 15.6 3.2-3.6 6.7-7.1 10.5-10.6-2.1-4.6-4.5-9.3-7.2-14.2 3.5 4 6.7 8 9.6 12.1 2.6-2.2 5.3-4.3 8.1-6.4-2.5 2.7-4.8 5.4-6.8 8.1 3.6 5.3 6.6 10.7 9.2 16.2 2.1-1.7 4.2-3.5 6.5-5.1-2.1 2.3-3.9 4.5-5.7 6.7 4.6 10 7.7 20.3 9.6 30.5 2.3-4.5 4.9-9.1 8-13.5.2-13-1.9-26.8-6.9-41.9-.3-.3-.6-.6-.8-1 .2.2.4.3.7.5-.9-2.5-1.9-5-2.8-7.6 2.2 3.3 4.1 6.7 6 10 8.2 6.4 15.1 13.5 20.9 21 2-1.6 4-3.2 6.2-4.8-1.9 1.9-3.6 4-5.2 6 4 5.2 7.5 10.6 10.5 16.2 2.9-3.1 6.1-6.2 9.7-9-5.6-16.7-14.7-33.5-29.3-50.4 21 16 35.2 35.3 44.8 55.6 2.3-2.8 4.7-5.5 7.2-8.2-2.7-11.2-7.2-22.9-14.4-35.2 8.6 9.6 15.1 19.7 20.1 30 2.1-1.7 4.1-3.5 6.4-5.1-2 2.3-3.9 4.5-5.7 6.7 4.7 10 7.7 20.3 9.6 30.5 2.3-4.5 5-9.1 8-13.5v-.8c-2.6-4-5.7-8-9.2-12.1 3.3 2.5 6.4 5.1 9.2 7.8-.4-13.8-3.3-28.6-9.8-44.8 8.7 13.2 14.4 26.7 17.7 40.1 2.2-2.4 4.5-4.6 6.8-6.9-1.8-2.3-3.7-4.6-5.8-6.9 2.6 1.8 5 3.7 7.2 5.7 2.2-2.1 4.7-3.9 7.1-5.7-2.1 2.3-4 4.6-5.8 6.9 2.5 2.3 4.8 4.5 6.8 6.9 3.4-13.4 9-26.9 17.7-40.1-6.4 16.2-9.4 31-9.8 44.8 2.9-2.7 5.9-5.3 9.3-7.8-3.6 4.1-6.7 8.1-9.3 12.1v.8c3.1 4.4 5.7 9 8 13.5 2-10.2 5-20.4 9.6-30.5-1.8-2.2-3.6-4.4-5.7-6.7 2.3 1.6 4.5 3.3 6.4 5.1 5-10.4 11.5-20.4 20.2-30-7.2 12.3-11.8 24-14.5 35.2 2.6 2.7 5.1 5.4 7.2 8.2 9.6-20.3 23.8-39.6 44.9-55.6-14.6 17-23.8 33.7-29.3 50.4 3.5 2.8 6.7 5.8 9.6 9 3-5.6 6.5-11 10.5-16.2-1.6-2.1-3.3-4.1-5.1-6 2.1 1.5 4.1 3.1 6.1 4.8 5.8-7.5 12.7-14.6 21-21 1.8-3.3 3.8-6.7 6-10-1 2.6-2 5.1-2.8 7.6.2-.2.4-.3.7-.5-.3.3-.6.6-.9 1-5.1 15.1-7 29-6.8 41.9 3 4.4 5.7 9 8 13.5 1.9-10.2 5-20.4 9.5-30.5-1.8-2.2-3.6-4.4-5.6-6.7 2.2 1.6 4.3 3.3 6.4 5.1 4.9-10.4 11.5-20.4 20.1-30-7.1 12.3-11.8 24-14.4 35.2 2.6 2.7 5 5.4 7.2 8.2 4.6-9.6 10-19 17-28-2.5-3.2-5.2-6.5-8.1-9.7 3.4 2.5 6.6 5.1 9.6 7.8 4.5-5.6 9.4-11 14.9-16.1-2.4-3.2-5-6.4-7.8-9.6 3.4 2.6 6.5 5.2 9.6 7.9 3-2.7 6.2-5.3 9.5-7.9-2.8 3.2-5.3 6.4-7.7 9.6 5.5 5.1 10.3 10.5 14.8 16.1 3-2.7 6.2-5.3 9.6-7.8-2.9 3.2-5.6 6.5-8.1 9.7 6.9 9 12.5 18.4 17.1 28 2.2-2.8 4.6-5.5 7.2-8.2-2.7-11.2-7.3-22.9-14.5-35.2 8.7 9.6 15.2 19.7 20.1 30 2.1-1.7 4.2-3.5 6.5-5.1-2.1 2.3-3.9 4.5-5.7 6.7 4.6 10 7.7 20.3 9.6 30.5 2.3-4.5 4.9-9.1 8-13.5.2-13-1.9-26.8-6.9-41.9-.3-.3-.6-.6-.8-1 .2.2.4.3.7.5-.9-2.5-1.9-5-2.8-7.6 2.2 3.3 4.1 6.7 6 10 8.2 6.4 15.1 13.5 20.9 21 2-1.6 4-3.2 6.2-4.8-1.9 1.9-3.5 4-5.2 6 4 5.2 7.5 10.6 10.6 16.2 2.8-3.1 6-6.2 9.6-9-5.6-16.7-14.7-33.5-29.3-50.4 21 16 35.2 35.3 44.8 55.6 2.3-2.8 4.7-5.5 7.2-8.2-2.7-11.2-7.2-22.9-14.4-35.2 8.6 9.6 15.1 19.7 20.1 30 2.1-1.7 4.1-3.5 6.4-5.1-2 2.3-3.9 4.5-5.7 6.7 4.7 10 7.7 20.3 9.6 30.5 2.3-4.5 5-9.1 8-13.5v-.8c-2.6-4-5.7-8-9.2-12.1 3.3 2.5 6.4 5.1 9.2 7.8-.4-13.8-3.3-28.6-9.8-44.8 8.7 13.2 14.4 26.7 17.7 40.1 2.2-2.4 4.5-4.6 6.8-6.9-1.8-2.3-3.7-4.6-5.8-6.9 2.6 1.8 5 3.7 7.2 5.7 2.3-2.1 4.7-3.9 7.1-5.7-2.1 2.3-4 4.6-5.8 6.9 2.5 2.3 4.8 4.5 6.8 6.9 3.4-13.4 9-26.9 17.7-40.1-6.4 16.2-9.4 31-9.8 44.8 2.9-2.7 5.9-5.3 9.3-7.8-3.6 4.1-6.7 8.1-9.3 12.1v.8c3.1 4.4 5.7 9 8 13.5 2-10.2 5.1-20.4 9.6-30.5-1.8-2.2-3.6-4.4-5.7-6.7 2.3 1.6 4.5 3.3 6.4 5.1 5-10.4 11.5-20.4 20.2-30-7.2 12.3-11.8 24-14.5 35.2 2.6 2.7 5.1 5.4 7.2 8.2 9.6-20.3 23.8-39.6 44.9-55.6-14.6 17-23.8 33.7-29.3 50.4 3.5 2.8 6.7 5.8 9.6 9 3-5.6 6.5-11 10.5-16.2-1.6-2.1-3.3-4.1-5.1-6 2.1 1.5 4.1 3.1 6.1 4.8 5.8-7.5 12.7-14.6 21-21 1.8-3.3 3.8-6.7 6-10-1 2.6-2 5.1-2.8 7.6.2-.2.4-.3.7-.5-.3.3-.6.6-.9 1-5.1 15.1-7 29-6.8 41.9 3 4.4 5.7 9 8 13.5 1.9-10.2 5-20.4 9.5-30.5-1.8-2.2-3.6-4.4-5.6-6.7 2.2 1.6 4.3 3.3 6.4 5.1 4.9-10.4 11.5-20.4 20.1-30-7.1 12.3-11.8 24-14.4 35.2 2.6 2.7 5 5.4 7.2 8.2 9.5-20.3 23.8-39.6 44.8-55.6-20.7 24.1-30.5 47.6-34.5 71.5 1.9 3.3 3.4 6.8 4.9 10.4 8.1-23.3 22-46.2 46.4-64-23.8 26.5-31.4 52.6-32.6 79.5 4.2-12.3 11.5-24.5 24.4-33.9-10.2 11.3-14.7 22.7-16.4 34.2H96.8c-1.7-11.6-6.1-22.9-16.4-34.2 12.8 9.4 20.2 21.6 24.3 33.9-1.2-26.9-8.8-53-32.5-79.5 24.3 17.7 38.2 40.6 46.4 64 1.3-3.6 3-7 4.9-10.4-3.9-23.9-13.8-47.4-34.5-71.5 21 16 35.3 35.3 44.8 55.6 2.3-2.8 4.7-5.5 7.2-8.2-2.7-11.2-7.2-22.9-14.4-35.2 8.6 9.6 15.1 19.7 20.1 30 2.1-1.7 4.1-3.5 6.4-5.1-2 2.3-3.9 4.5-5.7 6.7 4.7 10 7.7 20.3 9.6 30.5 2.3-4.5 5-9.1 8-13.5.2-13-1.8-26.8-6.8-41.9-.3-.3-.6-.6-.9-1 .3.2.5.3.7.5-.8-2.5-1.8-5-2.8-7.6 2.2 3.3 4.2 6.7 6 10 8.2 6.4 15.1 13.5 21 21 2-1.6 4-3.2 6.1-4.8-1.8 1.9-3.5 4-5.1 6 3.9 5.2 7.5 10.6 10.5 16.2 2.9-3.1 6.1-6.2 9.6-9-5.5-16.7-14.7-33.5-29.3-50.4 21.1 16 35.3 35.3 44.9 55.6 2.2-2.8 4.6-5.5 7.2-8.2-2.7-11.2-7.2-22.9-14.5-35.2 8.7 9.6 15.2 19.7 20.1 30 2.1-1.7 4.2-3.5 6.5-5.1-2.1 2.3-3.9 4.5-5.7 6.7 4.6 10 7.7 20.3 9.6 30.5 2.3-4.5 4.9-9.1 8-13.5v-.8c-2.6-4-5.7-8-9.3-12.1 3.4 2.5 6.4 5.1 9.2 7.8-.4-13.8-3.3-28.6-9.7-44.8 8.7 13.2 14.3 26.7 17.7 40.1 2.1-2.4 4.3-4.6 6.8-6.9-1.8-2.3-3.7-4.6-5.8-6.9 2.5 1.8 4.9 3.7 7.1 5.7 2.3-2.1 4.7-3.9 7.2-5.7-2.1 2.3-4 4.6-5.8 6.9 2.4 2.3 4.7 4.5 6.8 6.9 3.3-13.4 9-26.9 17.7-40.1-6.5 16.2-9.4 31-9.8 44.8 2.8-2.7 5.9-5.3 9.2-7.8-3.6 4.1-6.6 8.1-9.2 12.1v.8c3 4.4 5.7 9 8 13.5 1.9-10.2 5-20.4 9.5-30.5-1.7-2.2-3.6-4.4-5.6-6.7 2.3 1.6 4.3 3.3 6.4 5.1 5-10.4 11.5-20.4 20.1-30-7.1 12.3-11.8 24-14.4 35.2 2.6 2.7 5 5.4 7.2 8.2 9.5-20.3 23.8-39.6 44.8-55.6-14.6 17-23.8 33.7-29.3 50.4 3.5 2.8 6.7 5.8 9.6 9 3.1-5.6 6.5-11 10.6-16.2-1.7-2.1-3.3-4.1-5.2-6 2.2 1.5 4.2 3.1 6.1 4.8 5.9-7.5 12.8-14.6 21-21 1.9-3.3 3.8-6.7 6-10-1 2.6-2 5.1-2.8 7.6.3-.2.5-.3.7-.5-.3.3-.5.6-.8 1-5.1 15.1-7.1 29-6.9 41.9 3.1 4.4 5.7 9 8 13.5 2-10.2 5.1-20.4 9.6-30.5-1.8-2.2-3.6-4.4-5.7-6.7 2.3 1.6 4.5 3.3 6.5 5.1 4.9-10.4 11.4-20.4 20.1-30-7.2 12.3-11.8 24-14.5 35.2 2.6 2.7 5.1 5.4 7.2 8.2 4.6-9.6 10.1-19 17-28-2.4-3.2-5.1-6.5-8-9.7 3.4 2.5 6.6 5.1 9.6 7.8 4.3-5.6 9.3-11 14.8-16.1-2.4-3.2-5-6.4-7.7-9.6 3.3 2.6 6.5 5.2 9.5 7.9 3-2.7 6.2-5.3 9.6-7.9-2.8 3.2-5.4 6.4-7.8 9.6 5.5 5.1 10.5 10.5 14.9 16.1 3-2.7 6.2-5.3 9.6-7.8-2.9 3.2-5.6 6.5-8.1 9.7 6.8 9 12.4 18.4 17 28 2.3-2.8 4.7-5.5 7.2-8.2-2.6-11.2-7.2-22.9-14.4-35.2 8.6 9.6 15.1 19.7 20.1 30 2.1-1.7 4.1-3.5 6.4-5.1-2 2.3-3.9 4.5-5.7 6.7 4.7 10 7.7 20.3 9.6 30.5 2.3-4.5 5-9.1 8-13.5.2-13-1.8-26.8-6.8-41.9-.3-.3-.6-.6-.9-1 .3.2.5.3.7.5-.8-2.5-1.8-5-2.8-7.6 2.2 3.3 4.2 6.7 6 10 8.2 6.4 15.1 13.5 21 21 2-1.6 4-3.2 6.1-4.8-1.8 1.9-3.5 4-5.1 6 3.9 5.2 7.5 10.6 10.5 16.2 2.9-3.1 6.1-6.2 9.6-9-5.5-16.7-14.7-33.5-29.3-50.4 21.1 16 35.3 35.3 44.9 55.6 2.2-2.8 4.7-5.5 7.2-8.2-2.7-11.2-7.2-22.9-14.5-35.2 8.7 9.6 15.2 19.7 20.1 30 2.1-1.7 4.2-3.5 6.5-5.1-2.1 2.3-3.9 4.5-5.7 6.7 4.6 10 7.7 20.3 9.6 30.5 2.3-4.5 4.9-9.1 8-13.5v-.8c-2.6-4-5.7-8-9.3-12.1 3.4 2.5 6.4 5.1 9.2 7.8-.4-13.8-3.3-28.6-9.7-44.8 8.7 13.2 14.3 26.7 17.7 40.1 2.1-2.4 4.3-4.6 6.8-6.9-1.8-2.3-3.7-4.6-5.8-6.9 2.5 1.8 4.9 3.7 7.1 5.7 2.3-2.1 4.7-3.9 7.2-5.7-2.1 2.3-4 4.6-5.8 6.9 2.4 2.3 4.7 4.5 6.8 6.9 3.3-13.4 9-26.9 17.7-40.1-6.5 16.2-9.4 31-9.8 44.8 2.8-2.7 5.9-5.3 9.2-7.8-3.6 4.1-6.6 8.1-9.2 12.1v.8c3 4.4 5.7 9 8 13.5 2-10.2 5-20.4 9.6-30.5-1.8-2.2-3.7-4.4-5.7-6.7 2.3 1.6 4.3 3.3 6.4 5.1 5-10.4 11.5-20.4 20.1-30-7.1 12.3-11.8 24-14.4 35.2 2.6 2.7 5 5.4 7.2 8.2 9.5-20.3 23.8-39.6 44.8-55.6-13.7 16.9-22.9 33.7-28.4 50.4zm68.3-21.3c-2.6 6.3-4.6 12.3-6 18.3 2.6 2.7 5.1 5.4 7.2 8.2 2.2-4.5 4.6-9 7.1-13.4-2.4-4.3-5.1-8.6-8.3-13.1zm26.8-1.7c-3.3 6-6 12.1-8.3 18.1 3.1 4.3 5.8 8.6 8.3 13.1 2.5-4.4 5.3-8.8 8.4-13.1-2.3-6-4.9-12-8.4-18.1zm-11.8 28.9c-1.3 5.1-2.5 10.2-3.3 15.2 1.9 3.3 3.4 6.8 4.9 10.4 1-3.1 2.3-6.3 3.5-9.3-1.2-5.4-2.9-10.9-5.1-16.3zm38.7-27.2c-3.2 4.4-6 8.8-8.4 13.1 2.6 4.4 5 8.9 7.1 13.4 2.2-2.8 4.6-5.5 7.2-8.2-1.3-5.9-3.3-12-5.9-18.3zm-15.1 27.2c-2.1 5.4-3.7 10.9-5 16.3 1.2 3 2.5 6.2 3.5 9.3 1.4-3.6 3-7 4.9-10.4-.8-5.1-1.9-10.2-3.4-15.2zm-340.9 33.8c-.5-1.8-1-3.7-1.8-5.5-.5 4.2-.9 8.5-1.1 12.9.9-2.6 1.8-4.9 2.9-7.4zm-11-22.2c-1.1-1.5-2.4-3-3.7-4.4 1.4 1.1 2.9 2.2 4.2 3.3 2.7-5.6 5.7-11.1 9.2-16.5-2.4-5.3-5.3-10.5-8.7-15.7-5.9 12.2-9.4 24.5-11.5 36.8 1.9 3.3 3.4 6.8 4.9 10.4 1.5-4.6 3.4-9.2 5.6-13.9zm10.4 9.6c1.4 1.9 2.8 4 3.9 6 1.2-2.1 2.6-4.1 4-6-1-5.2-2.3-10.4-4-15.6-1.6 5.3-3 10.4-3.9 15.6zm7.4 12.6c1 2.5 2 4.9 2.8 7.3-.2-4.3-.5-8.6-1-12.9-.8 1.9-1.4 3.7-1.8 5.6zm-14.8-59.4c4.2 4.2 8 8.5 11.4 13.1 3.4-4.5 7.2-8.9 11.4-13.1-3.1-6.2-6.9-12.3-11.4-18.6-4.5 6.2-8.2 12.4-11.4 18.6zm16 19.6c3.5 5.4 6.6 10.9 9.3 16.5 1.3-1.2 2.7-2.3 4.2-3.3-1.3 1.4-2.6 2.9-3.7 4.4 2.1 4.6 3.9 9.3 5.6 13.9 1.3-3.6 3-7 4.9-10.4-2.1-12.3-5.7-24.6-11.5-36.8-3.5 5.2-6.4 10.4-8.8 15.7zm158.1 18.5c1.9 2.6 3.5 5.3 5 8 1.6-2.7 3.2-5.4 5.1-8 .4-4 1-8.1 1.9-12.1-2-3.7-4.2-7.2-6.9-10.8-2.6 3.6-4.9 7.1-6.9 10.8.7 4 1.3 8.1 1.8 12.1zm85.5.5c2.1 2.9 3.8 5.9 5.5 9.1 1.1-1.6 2.4-3.1 3.6-4.6.5-5.6 1.2-11.3 2.5-17.1-1.3-2.4-2.8-4.9-4.5-7.2-3 6.5-5.3 13.1-7.1 19.8zm7.8 13.9c.3.6.6 1.3.9 1.8 0-1.3 0-2.7.1-4.1-.4.7-.7 1.5-1 2.3zm.8-36.7c1.6 1.4 2.9 2.9 4.2 4.4 2.2-8.5 5.3-17.2 9.5-25.7-5.6 7.2-10.1 14.2-13.7 21.3zm-49.9 5.2c-2.1 10.3-2.5 20.3-1.8 30.1 2-6.8 4.3-13.6 7.2-20.3-1.5-3.2-3.3-6.5-5.4-9.8zm85.1 0c-2 10.3-2.4 20.3-1.8 30.1 2-6.8 4.3-13.6 7.2-20.3-1.5-3.2-3.3-6.5-5.4-9.8zm-195 11c2.3-3.8 5-7.7 8.1-11.5 2.2 6.7 3.7 13.4 4.9 20.2-1.9 3.3-3.4 6.8-4.9 10.4-2.2-6.4-4.9-12.8-8.1-19.1zm-9.8 6.6c-2 2.9-3.8 5.9-5.4 9.1-1.1-1.6-2.4-3.1-3.7-4.6-.4-5.6-1.2-11.3-2.4-17.1 1.3-2.4 2.8-4.9 4.3-7.2 3.1 6.5 5.5 13.1 7.2 19.8zm-7.8 13.9c-.3.6-.6 1.3-.8 1.8 0-1.3-.1-2.7-.1-4.1.3.7.6 1.5.9 2.3zm-.8-36.7c-1.4 1.4-2.9 2.9-4.2 4.4-2.2-8.5-5.2-17.2-9.4-25.7 5.5 7.2 10.1 14.2 13.6 21.3zm50 5.2c2 10.3 2.4 20.3 1.8 30.1-2-6.8-4.3-13.6-7.2-20.3 1.4-3.2 3.3-6.5 5.4-9.8zm-85.2 0c2.1 10.3 2.5 20.3 1.8 30.1-2-6.8-4.3-13.6-7.2-20.3 1.6-3.2 3.3-6.5 5.4-9.8zm-130.7 35.9c-.5-2.8-1.2-5.5-2.2-8.2-1 5.9-1.7 12-1.9 18 1.1-3.3 2.4-6.6 4.1-9.8zm-9.7-24.9c-2.3-3.8-5-7.7-8.2-11.5-2.2 6.7-3.7 13.4-4.9 20.2 1.9 3.3 3.5 6.8 4.9 10.4 2.3-6.4 5-12.8 8.2-19.1zm-75.8 6.1c1.9 2.6 3.5 5.3 5 8 1.6-2.7 3.2-5.4 5.1-8 .4-4 1-8.1 1.9-12.1-2-3.7-4.2-7.2-6.9-10.8-2.6 3.6-4.9 7.1-6.9 10.8.7 4 1.3 8.1 1.8 12.1zm85.5.5c2.1 2.9 3.8 5.9 5.5 9.1 1.1-1.6 2.4-3.1 3.6-4.6.5-5.6 1.2-11.3 2.5-17.1-1.3-2.4-2.8-4.9-4.5-7.2-3.1 6.5-5.3 13.1-7.1 19.8zm7.8 13.9c.3.6.6 1.3.9 1.8 0-1.3 0-2.7.1-4.1-.4.7-.7 1.5-1 2.3zm.8-36.7c1.6 1.4 2.9 2.9 4.2 4.4 2.2-8.5 5.3-17.2 9.5-25.7-5.6 7.2-10.1 14.2-13.7 21.3zm-49.9 5.2c-2.1 10.3-2.5 20.3-1.8 30.1 2-6.8 4.3-13.6 7.2-20.3-1.6-3.2-3.3-6.5-5.4-9.8zm85.1 0c-2 10.3-2.4 20.3-1.8 30.1 2-6.8 4.3-13.6 7.2-20.3-1.5-3.2-3.4-6.5-5.4-9.8zm-195 11c2.3-3.8 5-7.7 8.1-11.5 2.2 6.7 3.7 13.4 4.9 20.2-1.9 3.3-3.4 6.8-4.9 10.4-2.2-6.4-4.9-12.8-8.1-19.1zm-9.8 6.6c-2 2.9-3.8 5.9-5.5 9.1-1-1.6-2.3-3.1-3.6-4.6-.4-5.6-1.2-11.3-2.4-17.1 1.3-2.4 2.8-4.9 4.3-7.2 3.1 6.5 5.5 13.1 7.2 19.8zm-7.8 13.9c-.3.6-.6 1.3-.8 1.8 0-1.3-.1-2.7-.1-4.1.3.7.6 1.5.9 2.3zm-.8-36.7c-1.4 1.4-2.9 2.9-4.2 4.4-2.2-8.5-5.2-17.2-9.4-25.7 5.5 7.2 10 14.2 13.6 21.3zm50 5.2c2 10.3 2.4 20.3 1.8 30.1-2-6.8-4.3-13.6-7.2-20.3 1.4-3.2 3.3-6.5 5.4-9.8zm-85.2 0c2.1 10.3 2.5 20.3 1.8 30.1-2-6.8-4.3-13.6-7.2-20.3 1.4-3.2 3.3-6.5 5.4-9.8zm1031 35.9c.5-2.8 1.2-5.5 2.2-8.2 1 5.9 1.7 12 1.9 18-1.2-3.3-2.6-6.6-4.1-9.8zm160.9 0c-.5-2.8-1.2-5.5-2.2-8.2-1 5.9-1.6 12-1.9 18 1.2-3.3 2.6-6.6 4.1-9.8zm-9.7-24.9c-2.3-3.8-5-7.7-8.1-11.5-2.2 6.7-3.7 13.4-4.9 20.2 1.8 3.3 3.4 6.8 4.9 10.4 2.2-6.4 4.9-12.8 8.1-19.1zm-241.9 27.4c-.4-1.8-1-3.7-1.8-5.5-.5 4.2-.9 8.5-1.1 12.9.9-2.6 1.9-4.9 2.9-7.4zm-11-22.2c-1.1-1.5-2.4-3-3.7-4.4 1.6 1.1 2.9 2.2 4.2 3.3 2.7-5.6 5.8-11.1 9.3-16.5-2.4-5.3-5.3-10.5-8.8-15.7-5.8 12.2-9.4 24.5-11.5 36.8 1.9 3.3 3.4 6.8 4.9 10.4 1.6-4.6 3.5-9.2 5.6-13.9zm10.4 9.6c1.4 1.9 2.8 4 4 6 1.1-2.1 2.5-4.1 3.9-6-.9-5.2-2.3-10.4-3.9-15.6-1.7 5.3-3 10.4-4 15.6zm7.4 12.6c1.1 2.5 2.1 4.9 2.9 7.3-.2-4.3-.6-8.6-1.1-12.9-.8 1.9-1.3 3.7-1.8 5.6zm-14.8-59.4c4.2 4.2 8.1 8.5 11.5 13.1 3.4-4.5 7.1-8.9 11.4-13.1-3.2-6.2-6.9-12.3-11.4-18.6-4.5 6.2-8.3 12.4-11.5 18.6zm16 19.6c3.6 5.4 6.6 10.9 9.3 16.5 1.3-1.2 2.8-2.3 4.2-3.3-1.3 1.4-2.6 2.9-3.7 4.4 2.1 4.6 3.9 9.3 5.6 13.9 1.4-3.6 3-7 4.9-10.4-2.1-12.3-5.6-24.6-11.5-36.8-3.4 5.2-6.3 10.4-8.8 15.7zm158.1 18.5c1.9 2.6 3.5 5.3 5.1 8 1.4-2.7 3.1-5.4 5-8 .4-4 1.1-8.1 2-12.1-2.1-3.7-4.3-7.2-6.9-10.8-2.7 3.6-5 7.1-6.9 10.8.7 4 1.3 8.1 1.7 12.1zm85.5.5c2.1 2.9 3.9 5.9 5.5 9.1 1.1-1.6 2.4-3.1 3.7-4.6.4-5.6 1.2-11.3 2.4-17.1-1.3-2.4-2.8-4.9-4.3-7.2-3.1 6.5-5.5 13.1-7.3 19.8zm7.9 13.9c.3.6.5 1.3.8 1.8 0-1.3 0-2.7.1-4.1-.3.7-.6 1.5-.9 2.3zm.8-36.7c1.4 1.4 2.9 2.9 4.2 4.4 2.2-8.5 5.2-17.2 9.4-25.7-5.5 7.2-10.1 14.2-13.6 21.3zm-50 5.2c-2 10.3-2.4 20.3-1.8 30.1 2-6.8 4.3-13.6 7.2-20.3-1.4-3.2-3.3-6.5-5.4-9.8zm85.2 0c-2.1 10.3-2.5 20.3-1.9 30.1 2.1-6.8 4.5-13.6 7.3-20.3-1.6-3.2-3.3-6.5-5.4-9.8zm-195.1 11c2.3-3.8 5-7.7 8.2-11.5 2.1 6.7 3.7 13.4 4.8 20.2-1.8 3.3-3.4 6.8-4.8 10.4-2.3-6.4-5-12.8-8.2-19.1zm-9.7 6.6c-2.1 2.9-3.8 5.9-5.5 9.1-1.1-1.6-2.4-3.1-3.7-4.6-.4-5.6-1.1-11.3-2.4-17.1 1.3-2.4 2.8-4.9 4.5-7.2 3.1 6.5 5.3 13.1 7.1 19.8zm-7.8 13.9c-.3.6-.6 1.3-.9 1.8 0-1.3 0-2.7-.1-4.1.4.7.7 1.5 1 2.3zm-.8-36.7c-1.6 1.4-2.9 2.9-4.2 4.4-2.2-8.5-5.3-17.2-9.5-25.7 5.5 7.2 10.1 14.2 13.7 21.3zm49.9 5.2c2.1 10.3 2.5 20.3 1.8 30.1-2-6.8-4.3-13.6-7.2-20.3 1.4-3.2 3.3-6.5 5.4-9.8zm-85.1 0c2 10.3 2.4 20.3 1.8 30.1-2-6.8-4.5-13.6-7.2-20.3 1.5-3.2 3.2-6.5 5.4-9.8zm-130.8 35.9c-.5-2.8-1.2-5.5-2.2-8.2-1 5.9-1.6 12-1.9 18 1.2-3.3 2.5-6.6 4.1-9.8zm-9.7-24.9c-2.3-3.8-5-7.7-8.1-11.5-2.2 6.7-3.7 13.4-4.9 20.2 1.8 3.3 3.4 6.8 4.9 10.4 2.2-6.4 4.9-12.8 8.1-19.1zm-75.8 6.1c1.9 2.6 3.5 5.3 5.1 8 1.4-2.7 3.1-5.4 5-8 .4-4 1.1-8.1 2-12.1-2.1-3.7-4.3-7.2-6.9-10.8-2.7 3.6-5 7.1-6.9 10.8.7 4 1.3 8.1 1.7 12.1zm85.5.5c2.1 2.9 3.9 5.9 5.5 9.1 1.1-1.6 2.4-3.1 3.7-4.6.4-5.6 1.2-11.3 2.4-17.1-1.3-2.4-2.8-4.9-4.3-7.2-3.2 6.5-5.5 13.1-7.3 19.8zm7.9 13.9c.3.6.5 1.3.8 1.8 0-1.3 0-2.7.1-4.1-.3.7-.6 1.5-.9 2.3zm.8-36.7c1.4 1.4 2.9 2.9 4.2 4.4 2.1-8.5 5.2-17.2 9.4-25.7-5.5 7.2-10.1 14.2-13.6 21.3zm-50 5.2c-2 10.3-2.4 20.3-1.8 30.1 2-6.8 4.3-13.6 7.2-20.3-1.5-3.2-3.3-6.5-5.4-9.8zm85.2 0c-2.1 10.3-2.5 20.3-1.9 30.1 2.1-6.8 4.5-13.6 7.3-20.3-1.6-3.2-3.4-6.5-5.4-9.8zm-195.1 11c2.3-3.8 5-7.7 8.2-11.5 2.1 6.7 3.7 13.4 4.8 20.2-1.8 3.3-3.4 6.8-4.8 10.4-2.3-6.4-5-12.8-8.2-19.1zm-9.7 6.6c-2.1 2.9-3.8 5.9-5.5 9.1-1.1-1.6-2.4-3.1-3.7-4.6-.4-5.6-1.1-11.3-2.4-17.1 1.3-2.4 2.8-4.9 4.5-7.2 3 6.5 5.3 13.1 7.1 19.8zm-7.8 13.9c-.3.6-.6 1.3-.9 1.8 0-1.3 0-2.7-.1-4.1.4.7.7 1.5 1 2.3zm-.8-36.7c-1.6 1.4-2.9 2.9-4.2 4.4-2.2-8.5-5.3-17.2-9.5-25.7 5.5 7.2 10 14.2 13.7 21.3zm49.9 5.2c2 10.3 2.5 20.3 1.8 30.1-2-6.8-4.3-13.6-7.2-20.3 1.4-3.2 3.3-6.5 5.4-9.8zm-85.1 0c2 10.3 2.4 20.3 1.8 30.1-2-6.8-4.5-13.6-7.2-20.3 1.4-3.2 3.2-6.5 5.4-9.8z" clip-rule="evenodd" class="color0ebaa0 svgShape"/><g fill="#000000" class="color000 svgShape"><path fill="#ffffff" fill-rule="evenodd" d="M2493.7 1483.8v40.5h6v-40.5c.9-.1 1.6-.8 1.6-1.8 0-.7-.4-1.3-1-1.6.6-.3 1-.9 1-1.6 0-.7-.4-1.2-.9-1.5.5-.3.9-.9.9-1.5 0-.7-.4-1.3-1-1.6.6-.3 1-.9 1-1.6 0-.6-.3-1.1-.8-1.4.5-.3.8-.9.8-1.4 0-.7-.4-1.3-1-1.6.6-.3 1-.9 1-1.6 0-.8-.5-1.4-1.2-1.7-.1-.4-.3-.7-.6-1l-14.2-14.2c-.9-.9-2.3-.9-3.2 0l-1 1c-.9.9-.9 2.3 0 3.2l11.6 11.6c-.2.3-.4.7-.4 1.1 0 .7.4 1.3 1 1.6-.6.3-1 .9-1 1.6 0 .6.3 1.1.8 1.4-.5.3-.8.9-.8 1.4 0 .7.4 1.3 1 1.6-.6.3-1 .9-1 1.6 0 .7.4 1.2.9 1.5-.5.3-.9.9-.9 1.5 0 .7.4 1.3 1 1.6-.6.3-1 .9-1 1.6 0 .9.6 1.6 1.4 1.8z" clip-rule="evenodd" class="colorfff svgShape"/><path fill="#2c7efe" fill-rule="evenodd" d="m2539.1 1504.4-7.9 74.5h-46l-8-74.5h47.2z" clip-rule="evenodd" class="color2c7efe svgShape"/><path fill="#0ebaa0" fill-rule="evenodd" d="M2536.5 1528.7h-56.7l3.5 32.7h49.8z" clip-rule="evenodd" class="color0ebaa0 svgShape"/><path fill="#42c5a0" fill-rule="evenodd" d="M2532.1 1532.2h-51.9l3.1 29.2h45.7z" clip-rule="evenodd" class="color42c5a0 svgShape"/><path fill="#2c7efe" fill-rule="evenodd" d="m2527.4 1491.4-37.8-1.6c-4.4-.2-8.2 3.3-8.4 7.7-.2 4.4 3.3 8.2 7.7 8.4l37.8 1.6c4.4.2 8.2-3.3 8.4-7.7.2-4.4-3.3-8.2-7.7-8.4z" clip-rule="evenodd" class="color2c7efe svgShape"/><path fill="#0643a3" fill-rule="evenodd" d="M2535 1498.2h-53.6c-4.4 0-7.9 4.2-7.9 9.4 0 .9.1 1.7.3 2.5h68.9c.2-.8.3-1.6.3-2.5-.1-5.1-3.7-9.4-8-9.4z" clip-rule="evenodd" class="color0643a3 svgShape"/><path fill="#a97c50" fill-rule="evenodd" d="M2500.4 1535.5c-3.4 2.6-2.9 9 1.1 14.4s10.1 7.6 13.5 5.1c3.4-2.6 2.9-9-1.1-14.4s-10-7.7-13.5-5.1zm1.5 1.6c2.9 5.9 11.7 9 11.9 16.1-2.5-5.9-11.9-8.1-11.9-16.1z" clip-rule="evenodd" class="colora97c50 svgShape"/><g fill="#000000" class="color000 svgShape"><path fill="#0643a3" fill-rule="evenodd" d="M2423.3 1441.1c20.3 0 36.9 16.6 36.9 36.9v125.9c0 20.3-16.6 36.9-36.9 36.9-20.3 0-36.9-16.6-36.9-36.9V1478c0-20.3 16.6-36.9 36.9-36.9z" clip-rule="evenodd" class="color0643a3 svgShape"/><path fill="#060352" fill-rule="evenodd" d="M2328.6 1320.8c11.5 47.6-43.1 26.7-18.6 7.1 18.5-14.8-5.3-46.9 44.6-44.5 25.1 1.2 21.3 3.7 44.9 16.2 35.3 18.8 36.8 104.3 23.4 159.4-5.8 23.7-54 14-67.8 3.1-17.4-13.6-66.6-7-27.3-60.6 16-21.9 4.3-65 7.5-75.3l-6.7-5.4z" clip-rule="evenodd" class="color060352 svgShape"/><path fill="#f5b090" fill-rule="evenodd" d="m2212.4 1427.4 4.1-17.9-17.9-8.7c.1-5.6 1.2-15.8-2.9-17.1-7.1-2.7-2.4 7.3-3.6 11-8.5 2.5-19.1-24-25.3-17.5-16.9 21.9 11.5 31.6 24 38.4l21.6 11.8z" clip-rule="evenodd" class="colorf5b090 svgShape"/><path fill="#ff4d8a" fill-rule="evenodd" d="m2379.5 1434.5-16.2-16.7-69.1 30.2-87.8-44.4-9.6 16.6c28.7 17.1 83.2 52.9 92.7 55 12.1 2.5 31.5-5.5 50.6-6.3l39.4-34.4z" clip-rule="evenodd" class="colorff4d8a svgShape"/><path fill="#fc6ba2" fill-rule="evenodd" d="m2391 1407.4-25.7 4.2c-8.3 7.4-24.9 13-24.9 22.2l-7.8 180.8c36.6 16.9 60.7-8.5 91-2.1l-4.2-182.1c-2.8-12.4-18.9-15.3-28.4-23z" clip-rule="evenodd" class="colorfc6ba2 svgShape"/><path fill="#ef845c" fill-rule="evenodd" d="m2390.8 1358.7-25.5 11.7v45c2.6 20.5 22.4 3.7 25.7-.6l-.2-56.1z" clip-rule="evenodd" class="coloref845c svgShape"/><path fill="#f5b090" fill-rule="evenodd" d="M2393.4 1325.4l-64.9-4.6c.8 31.5-2.1 84.9 29.3 83.3 35.3-1.1 39.3-39 35.6-78.7zM2313.7 1576.7l-10.2-15.3-18.7 7c-4-3.9-10.7-11.7-14.4-9.7-6.9 3.4 3.7 6.8 5.5 10.2-4 7.9-30.6-2.7-30.2 6.3 4.3 27.4 30.9 13.4 44.4 9l23.6-7.5z" clip-rule="evenodd" class="colorf5b090 svgShape"/><path fill="#ff4d8a" fill-rule="evenodd" d="M2394.4 1433.9c.4-11.3 18.7-20 25.4-6.1 6 13.2 18.9 82.7 13 103-10.7 20.8-116.6 48.2-138.6 53.1l-6.5-17.2 114.9-48.4-8.2-84.4z" clip-rule="evenodd" class="colorff4d8a svgShape"/><path fill="#060352" fill-rule="evenodd" d="M2323.7 1341.5c-2.3 3.6 7.5 6.1 19.1-9.6 12.8-17.1 11.7 8.9 40.7 7.2 8.1-.4 9.5 40.5 24 40.5.2.2 15-51.6-6.2-53.1-2.9-.2-57-39.3-81.6-2.5-3.5 5.3 4.9 16.1 4 17.5z" clip-rule="evenodd" class="color060352 svgShape"/></g><path fill="#2c7efe" fill-rule="evenodd" d="M2261.2 1406H2074c-6.1 0-11.2 5-11.2 11.2V1522c0 6.2 5 11.2 11.2 11.2h62.2l-8.4 46.3h82.1c3.4 0 6.3-2.8 6.3-6.3v-8.3c0-3.5-2.8-6.3-6.3-6.3h-50.6l4.6-25.5h97.3c6.1 0 11.2-5 11.2-11.2v-104.8c0-6.1-5.1-11.1-11.2-11.1z" clip-rule="evenodd" class="color2c7efe svgShape"/><g fill="#000000" class="color000 svgShape"><path fill="#2c7efe" fill-rule="evenodd" d="M2561.8 1621.6h-28.2c-5.4 0-9.8 3.3-9.8 7.4v152.3c0 4 4.4 7.3 9.8 7.3h1.9V1918c-3.1 1.4-5.1 3.9-5.1 6.8 0 4.4 4.7 7.9 10.6 7.9h15.4c5.8 0 10.6-3.6 10.6-7.9 0-2.8-2.1-5.3-5.1-6.8v-129.4h1.9c5.4 0 9.8-3.3 9.8-7.3V1629c0-4-4.4-7.4-9.8-7.4h-2zM2091.8 1621.6H2063.5c-5.4 0-9.8 3.3-9.8 7.4v152.3c0 4 4.4 7.3 9.8 7.3h1.9V1918c-3 1.4-5.1 3.9-5.1 6.8 0 4.4 4.8 7.9 10.6 7.9h15.3c5.8 0 10.6-3.6 10.6-7.9 0-2.8-2.1-5.3-5.1-6.8v-129.4h1.9c5.4 0 9.8-3.3 9.8-7.3V1629c0-4-4.4-7.4-9.8-7.4h-1.8z" clip-rule="evenodd" class="color2c7efe svgShape"/><path fill="#84b2fe" fill-rule="evenodd" d="M2045.2 1579.1H2582v327.3h-536.8z" clip-rule="evenodd" class="color84b2fe svgShape"/></g></g><path fill="#0ebaa0" fill-rule="evenodd" d="M2107.1 1933.2c.5-2.8 1.2-5.5 2.2-8.2 1 5.9 1.7 12 1.9 18-1.2-3.3-2.5-6.6-4.1-9.8zm-651.7 0c.6-2.8 1.3-5.5 2.2-8.2 1 5.9 1.7 12 2 18-1.2-3.3-2.5-6.6-4.2-9.8zm335.5 0c.6-2.8 1.3-5.5 2.2-8.2 1 5.9 1.7 12 2 18-1.1-3.3-2.5-6.6-4.2-9.8zm161.1 0c-.5-2.8-1.2-5.5-2.2-8.2-1 5.9-1.7 12-1.9 18 1.1-3.3 2.4-6.6 4.1-9.8zm-9.7-24.9c-2.3-3.8-5-7.7-8.2-11.5-2.2 6.7-3.7 13.4-4.9 20.2 1.9 3.3 3.5 6.8 4.9 10.4 2.3-6.4 4.9-12.8 8.2-19.1zm-7.9-12.3c3.5 2.8 6.7 5.8 9.6 9 3.1-5.6 6.5-11 10.6-16.2-1.7-2.1-3.3-4.1-5.2-6 2.2 1.5 4.2 3.1 6.1 4.8 5.9-7.5 12.8-14.6 21-21 1.9-3.3 3.8-6.7 6-10-1 2.6-2 5.1-2.8 7.6.3-.2.5-.3.7-.5-.3.3-.5.6-.8 1-5.1 15.1-7.1 29-6.9 41.9 3.1 4.4 5.7 9 8 13.5 2-10.2 5.1-20.4 9.6-30.5-1.8-2.2-3.6-4.4-5.7-6.7 2.3 1.6 4.5 3.3 6.5 5.1 2.6-5.5 5.6-10.9 9.2-16.2-2.2-2.7-4.3-5.4-6.8-8.1 2.8 2.1 5.5 4.2 8.1 6.4 2.9-4.1 6-8.1 9.6-12.1-2.8 4.9-5.3 9.5-7.2 14.2 3.7 3.5 7.2 7 10.5 10.6 3.4-5.3 7.3-10.5 11.6-15.6-4.3-7-9.5-14.2-15.7-21.4 7.2 5.5 13.6 11.3 19.3 17.5 5.7-6.2 12.1-12 19.4-17.5-6.2 7.2-11.4 14.4-15.8 21.4 4.3 5.1 8.3 10.3 11.7 15.6 3.2-3.6 6.7-7.1 10.5-10.6-2.1-4.6-4.5-9.3-7.2-14.2 3.5 4 6.7 8 9.6 12.1 2.6-2.2 5.3-4.3 8.1-6.4-2.5 2.7-4.8 5.4-6.8 8.1 3.6 5.3 6.6 10.7 9.2 16.2 2.1-1.7 4.2-3.5 6.5-5.1-2.1 2.3-3.9 4.5-5.7 6.7 4.6 10 7.7 20.3 9.6 30.5 2.3-4.5 4.9-9.1 8-13.5.2-13-1.9-26.8-6.9-41.9-.3-.3-.6-.6-.8-1 .2.2.4.3.7.5-.9-2.5-1.9-5-2.8-7.6 2.2 3.3 4.1 6.7 6 10 8.2 6.4 15.1 13.5 20.9 21 2-1.6 4-3.2 6.2-4.8-1.9 1.9-3.6 4-5.2 6 4 5.2 7.5 10.6 10.5 16.2 2.9-3.1 6.1-6.2 9.7-9-5.6-16.7-14.7-33.5-29.3-50.4 21 16 35.2 35.3 44.8 55.6 2.3-2.8 4.7-5.5 7.2-8.2-2.7-11.2-7.2-22.9-14.4-35.2 8.6 9.6 15.1 19.7 20.1 30 2.1-1.7 4.1-3.5 6.4-5.1-2 2.3-3.9 4.5-5.7 6.7 4.7 10 7.7 20.3 9.6 30.5 2.3-4.5 5-9.1 8-13.5v-.8c-2.6-4-5.7-8-9.2-12.1 3.3 2.5 6.4 5.1 9.2 7.8-.4-13.8-3.3-28.6-9.8-44.8 8.7 13.2 14.4 26.7 17.7 40.1 2.2-2.4 4.5-4.6 6.8-6.9-1.8-2.3-3.7-4.6-5.8-6.9 2.6 1.8 5 3.7 7.2 5.7 2.2-2.1 4.7-3.9 7.1-5.7-2.1 2.3-4 4.6-5.8 6.9 2.5 2.3 4.8 4.5 6.8 6.9 3.4-13.4 9-26.9 17.7-40.1-6.4 16.2-9.4 31-9.8 44.8 2.9-2.7 5.9-5.3 9.3-7.8-3.6 4.1-6.7 8.1-9.3 12.1v.8c3.1 4.4 5.7 9 8 13.5 2-10.2 5-20.4 9.6-30.5-1.8-2.2-3.6-4.4-5.7-6.7 2.3 1.6 4.5 3.3 6.4 5.1 5-10.4 11.5-20.4 20.2-30-7.2 12.3-11.8 24-14.5 35.2 2.6 2.7 5.1 5.4 7.2 8.2 9.6-20.3 23.8-39.6 44.9-55.6-14.6 17-23.8 33.7-29.3 50.4 3.5 2.8 6.7 5.8 9.6 9 3-5.6 6.5-11 10.5-16.2-1.6-2.1-3.3-4.1-5.1-6 2.1 1.5 4.1 3.1 6.1 4.8 5.8-7.5 12.7-14.6 21-21 1.8-3.3 3.8-6.7 6-10-1 2.6-2 5.1-2.8 7.6.2-.2.4-.3.7-.5-.3.3-.6.6-.9 1-5.1 15.1-7 29-6.8 41.9 3 4.4 5.7 9 8 13.5 1.9-10.2 5-20.4 9.5-30.5-1.8-2.2-3.6-4.4-5.6-6.7 2.2 1.6 4.3 3.3 6.4 5.1 4.9-10.4 11.5-20.4 20.1-30-7.1 12.3-11.8 24-14.4 35.2 2.6 2.7 5 5.4 7.2 8.2 4.6-9.6 10-19 17-28-2.5-3.2-5.2-6.5-8.1-9.7 3.4 2.5 6.6 5.1 9.6 7.8 4.5-5.6 9.4-11 14.9-16.1-2.4-3.2-5-6.4-7.8-9.6 3.4 2.6 6.5 5.2 9.6 7.9 3-2.7 6.2-5.3 9.5-7.9-2.8 3.2-5.3 6.4-7.7 9.6 5.5 5.1 10.3 10.5 14.8 16.1 3-2.7 6.2-5.3 9.6-7.8-2.9 3.2-5.6 6.5-8.1 9.7 6.9 9 12.5 18.4 17.1 28 2.2-2.8 4.6-5.5 7.2-8.2-2.7-11.2-7.3-22.9-14.5-35.2 8.7 9.6 15.2 19.7 20.1 30 2.1-1.7 4.2-3.5 6.5-5.1-2.1 2.3-3.9 4.5-5.7 6.7 4.6 10 7.7 20.3 9.6 30.5 2.3-4.5 4.9-9.1 8-13.5.2-13-1.9-26.8-6.9-41.9-.3-.3-.6-.6-.8-1 .2.2.4.3.7.5-.9-2.5-1.9-5-2.8-7.6 2.2 3.3 4.1 6.7 6 10 8.2 6.4 15.1 13.5 20.9 21 2-1.6 4-3.2 6.2-4.8-1.9 1.9-3.5 4-5.2 6 4 5.2 7.5 10.6 10.6 16.2 2.8-3.1 6-6.2 9.6-9-5.6-16.7-14.7-33.5-29.3-50.4 21 16 35.2 35.3 44.8 55.6 2.3-2.8 4.7-5.5 7.2-8.2-2.7-11.2-7.2-22.9-14.4-35.2 8.6 9.6 15.1 19.7 20.1 30 2.1-1.7 4.1-3.5 6.4-5.1-2 2.3-3.9 4.5-5.7 6.7 4.7 10 7.7 20.3 9.6 30.5 2.3-4.5 5-9.1 8-13.5v-.8c-2.6-4-5.7-8-9.2-12.1 3.3 2.5 6.4 5.1 9.2 7.8-.4-13.8-3.3-28.6-9.8-44.8 8.7 13.2 14.4 26.7 17.7 40.1 2.2-2.4 4.5-4.6 6.8-6.9-1.8-2.3-3.7-4.6-5.8-6.9 2.6 1.8 5 3.7 7.2 5.7 2.3-2.1 4.7-3.9 7.1-5.7-2.1 2.3-4 4.6-5.8 6.9 2.5 2.3 4.8 4.5 6.8 6.9 3.4-13.4 9-26.9 17.7-40.1-6.4 16.2-9.4 31-9.8 44.8 2.9-2.7 5.9-5.3 9.3-7.8-3.6 4.1-6.7 8.1-9.3 12.1v.8c3.1 4.4 5.7 9 8 13.5 2-10.2 5.1-20.4 9.6-30.5-1.8-2.2-3.6-4.4-5.7-6.7 2.3 1.6 4.5 3.3 6.4 5.1 5-10.4 11.5-20.4 20.2-30-7.2 12.3-11.8 24-14.5 35.2 2.6 2.7 5.1 5.4 7.2 8.2 9.6-20.3 23.8-39.6 44.9-55.6-14.6 17-23.8 33.7-29.3 50.4 3.5 2.8 6.7 5.8 9.6 9 3-5.6 6.5-11 10.5-16.2-1.6-2.1-3.3-4.1-5.1-6 2.1 1.5 4.1 3.1 6.1 4.8 5.8-7.5 12.7-14.6 21-21 1.8-3.3 3.8-6.7 6-10-1 2.6-2 5.1-2.8 7.6.2-.2.4-.3.7-.5-.3.3-.6.6-.9 1-5.1 15.1-7 29-6.8 41.9 3 4.4 5.7 9 8 13.5 1.9-10.2 5-20.4 9.5-30.5-1.8-2.2-3.6-4.4-5.6-6.7 2.2 1.6 4.3 3.3 6.4 5.1 4.9-10.4 11.5-20.4 20.1-30-7.1 12.3-11.8 24-14.4 35.2 2.6 2.7 5 5.4 7.2 8.2 9.5-20.3 23.8-39.6 44.8-55.6-20.7 24.1-30.5 47.6-34.5 71.5 1.9 3.3 3.4 6.8 4.9 10.4 8.1-23.3 22-46.2 46.4-64-23.8 26.5-31.4 52.6-32.6 79.5 4.2-12.3 11.5-24.5 24.4-33.9-10.2 11.3-14.7 22.7-16.4 34.2H1366.4c-1.7-11.6-6.1-22.9-16.4-34.2 12.8 9.4 20.2 21.6 24.3 33.9-1.2-26.9-8.8-53-32.5-79.5 24.3 17.7 38.2 40.6 46.4 64 1.3-3.6 3-7 4.9-10.4-3.9-23.9-13.8-47.4-34.5-71.5 21 16 35.3 35.3 44.8 55.6 2.3-2.8 4.7-5.5 7.2-8.2-2.7-11.2-7.2-22.9-14.4-35.2 8.6 9.6 15.1 19.7 20.1 30 2.1-1.7 4.1-3.5 6.4-5.1-2 2.3-3.9 4.5-5.7 6.7 4.7 10 7.7 20.3 9.6 30.5 2.3-4.5 5-9.1 8-13.5.2-13-1.8-26.8-6.8-41.9-.3-.3-.6-.6-.9-1 .3.2.5.3.7.5-.8-2.5-1.8-5-2.8-7.6 2.2 3.3 4.2 6.7 6 10 8.2 6.4 15.1 13.5 21 21 2-1.6 4-3.2 6.1-4.8-1.8 1.9-3.5 4-5.1 6 3.9 5.2 7.5 10.6 10.5 16.2 2.9-3.1 6.1-6.2 9.6-9-5.5-16.7-14.7-33.5-29.3-50.4 21.1 16 35.3 35.3 44.9 55.6 2.2-2.8 4.6-5.5 7.2-8.2-2.7-11.2-7.2-22.9-14.5-35.2 8.7 9.6 15.2 19.7 20.1 30 2.1-1.7 4.2-3.5 6.5-5.1-2.1 2.3-3.9 4.5-5.7 6.7 4.6 10 7.7 20.3 9.6 30.5 2.3-4.5 4.9-9.1 8-13.5v-.8c-2.6-4-5.7-8-9.3-12.1 3.4 2.5 6.4 5.1 9.2 7.8-.4-13.8-3.3-28.6-9.7-44.8 8.7 13.2 14.3 26.7 17.7 40.1 2.1-2.4 4.3-4.6 6.8-6.9-1.8-2.3-3.7-4.6-5.8-6.9 2.5 1.8 4.9 3.7 7.1 5.7 2.3-2.1 4.7-3.9 7.2-5.7-2.1 2.3-4 4.6-5.8 6.9 2.4 2.3 4.7 4.5 6.8 6.9 3.3-13.4 9-26.9 17.7-40.1-6.5 16.2-9.4 31-9.8 44.8 2.8-2.7 5.9-5.3 9.2-7.8-3.6 4.1-6.6 8.1-9.2 12.1v.8c3 4.4 5.7 9 8 13.5 1.9-10.2 5-20.4 9.5-30.5-1.7-2.2-3.6-4.4-5.6-6.7 2.3 1.6 4.3 3.3 6.4 5.1 5-10.4 11.5-20.4 20.1-30-7.1 12.3-11.8 24-14.4 35.2 2.6 2.7 5 5.4 7.2 8.2 9.5-20.3 23.8-39.6 44.8-55.6-14.6 17-23.8 33.7-29.3 50.4 3.5 2.8 6.7 5.8 9.6 9 3.1-5.6 6.5-11 10.6-16.2-1.7-2.1-3.3-4.1-5.2-6 2.2 1.5 4.2 3.1 6.1 4.8 5.9-7.5 12.8-14.6 21-21 1.9-3.3 3.8-6.7 6-10-1 2.6-2 5.1-2.8 7.6.3-.2.5-.3.7-.5-.3.3-.5.6-.8 1-5.1 15.1-7.1 29-6.9 41.9 3.1 4.4 5.7 9 8 13.5 2-10.2 5.1-20.4 9.6-30.5-1.8-2.2-3.6-4.4-5.7-6.7 2.3 1.6 4.5 3.3 6.5 5.1 4.9-10.4 11.4-20.4 20.1-30-7.2 12.3-11.8 24-14.5 35.2 2.6 2.7 5.1 5.4 7.2 8.2 4.6-9.6 10.1-19 17-28-2.4-3.2-5.1-6.5-8-9.7 3.4 2.5 6.6 5.1 9.6 7.8 4.3-5.6 9.3-11 14.8-16.1-2.4-3.2-5-6.4-7.7-9.6 3.3 2.6 6.5 5.2 9.5 7.9 3-2.7 6.2-5.3 9.6-7.9-2.8 3.2-5.4 6.4-7.8 9.6 5.5 5.1 10.5 10.5 14.9 16.1 3-2.7 6.2-5.3 9.6-7.8-2.9 3.2-5.6 6.5-8.1 9.7 6.8 9 12.4 18.4 17 28 2.3-2.8 4.7-5.5 7.2-8.2-2.6-11.2-7.2-22.9-14.4-35.2 8.6 9.6 15.1 19.7 20.1 30 2.1-1.7 4.1-3.5 6.4-5.1-2 2.3-3.9 4.5-5.7 6.7 4.7 10 7.7 20.3 9.6 30.5 2.3-4.5 5-9.1 8-13.5.2-13-1.8-26.8-6.8-41.9-.3-.3-.6-.6-.9-1 .3.2.5.3.7.5-.8-2.5-1.8-5-2.8-7.6 2.2 3.3 4.2 6.7 6 10 8.2 6.4 15.1 13.5 21 21 2-1.6 4-3.2 6.1-4.8-1.8 1.9-3.5 4-5.1 6 3.9 5.2 7.5 10.6 10.5 16.2 2.9-3.1 6.1-6.2 9.6-9-5.5-16.7-14.7-33.5-29.3-50.4 21.1 16 35.3 35.3 44.9 55.6 2.2-2.8 4.7-5.5 7.2-8.2-2.7-11.2-7.2-22.9-14.5-35.2 8.7 9.6 15.2 19.7 20.1 30 2.1-1.7 4.2-3.5 6.5-5.1-2.1 2.3-3.9 4.5-5.7 6.7 4.6 10 7.7 20.3 9.6 30.5 2.3-4.5 4.9-9.1 8-13.5v-.8c-2.6-4-5.7-8-9.3-12.1 3.4 2.5 6.4 5.1 9.2 7.8-.4-13.8-3.3-28.6-9.7-44.8 8.7 13.2 14.3 26.7 17.7 40.1 2.1-2.4 4.3-4.6 6.8-6.9-1.8-2.3-3.7-4.6-5.8-6.9 2.5 1.8 4.9 3.7 7.1 5.7 2.3-2.1 4.7-3.9 7.2-5.7-2.1 2.3-4 4.6-5.8 6.9 2.4 2.3 4.7 4.5 6.8 6.9 3.3-13.4 9-26.9 17.7-40.1-6.5 16.2-9.4 31-9.8 44.8 2.8-2.7 5.9-5.3 9.2-7.8-3.6 4.1-6.6 8.1-9.2 12.1v.8c3 4.4 5.7 9 8 13.5 2-10.2 5-20.4 9.6-30.5-1.8-2.2-3.7-4.4-5.7-6.7 2.3 1.6 4.3 3.3 6.4 5.1 5-10.4 11.5-20.4 20.1-30-7.1 12.3-11.8 24-14.4 35.2 2.6 2.7 5 5.4 7.2 8.2 9.5-20.3 23.8-39.6 44.8-55.6-13.7 16.9-22.9 33.7-28.4 50.4zm68.3-21.3c-2.6 6.3-4.6 12.3-6 18.3 2.6 2.7 5.1 5.4 7.2 8.2 2.2-4.5 4.6-9 7.1-13.4-2.4-4.3-5.1-8.6-8.3-13.1zm26.8-1.7c-3.3 6-6 12.1-8.3 18.1 3.1 4.3 5.8 8.6 8.3 13.1 2.5-4.4 5.3-8.8 8.4-13.1-2.3-6-5-12-8.4-18.1zm-11.8 28.9c-1.3 5.1-2.5 10.2-3.3 15.2 1.9 3.3 3.4 6.8 4.9 10.4 1-3.1 2.3-6.3 3.5-9.3-1.3-5.4-2.9-10.9-5.1-16.3zm38.7-27.2c-3.2 4.4-6 8.8-8.4 13.1 2.6 4.4 5 8.9 7.1 13.4 2.2-2.8 4.6-5.5 7.2-8.2-1.3-5.9-3.3-12-5.9-18.3zm-15.1 27.2c-2.1 5.4-3.7 10.9-5 16.3 1.2 3 2.5 6.2 3.5 9.3 1.4-3.6 3-7 4.9-10.4-.8-5.1-1.9-10.2-3.4-15.2zm-340.9 33.8c-.5-1.8-1-3.7-1.8-5.5-.5 4.2-.9 8.5-1.1 12.9.8-2.6 1.8-4.9 2.9-7.4zm-11.1-22.2c-1.1-1.5-2.4-3-3.7-4.4 1.4 1.1 2.9 2.2 4.2 3.3 2.7-5.6 5.7-11.1 9.2-16.5-2.4-5.3-5.3-10.5-8.7-15.7-5.9 12.2-9.4 24.5-11.5 36.8 1.9 3.3 3.4 6.8 4.9 10.4 1.6-4.6 3.4-9.2 5.6-13.9zm10.5 9.6c1.4 1.9 2.8 4 3.9 6 1.2-2.1 2.6-4.1 4-6-1-5.2-2.3-10.4-4-15.6-1.7 5.3-3 10.4-3.9 15.6zm7.3 12.6c1 2.5 2 4.9 2.8 7.3-.2-4.3-.5-8.6-1-12.9-.7 1.9-1.4 3.7-1.8 5.6zm-14.8-59.4c4.2 4.2 8 8.5 11.4 13.1 3.4-4.5 7.2-8.9 11.4-13.1-3.1-6.2-6.9-12.3-11.4-18.6-4.4 6.2-8.2 12.4-11.4 18.6zm16.1 19.6c3.5 5.4 6.6 10.9 9.3 16.5 1.3-1.2 2.7-2.3 4.2-3.3-1.3 1.4-2.6 2.9-3.7 4.4 2.1 4.6 3.9 9.3 5.6 13.9 1.3-3.6 3-7 4.9-10.4-2.1-12.3-5.7-24.6-11.5-36.8-3.6 5.2-6.5 10.4-8.8 15.7zm158.1 18.5c1.9 2.6 3.5 5.3 5 8 1.6-2.7 3.2-5.4 5.1-8 .4-4 1-8.1 1.9-12.1-2-3.7-4.2-7.2-6.9-10.8-2.6 3.6-4.9 7.1-6.9 10.8.7 4 1.3 8.1 1.8 12.1zm85.5.5c2.1 2.9 3.8 5.9 5.5 9.1 1.1-1.6 2.4-3.1 3.6-4.6.5-5.6 1.2-11.3 2.5-17.1-1.3-2.4-2.8-4.9-4.5-7.2-3.1 6.5-5.4 13.1-7.1 19.8zm7.7 13.9c.3.6.6 1.3.9 1.8 0-1.3 0-2.7.1-4.1-.3.7-.6 1.5-1 2.3zm.9-36.7c1.6 1.4 2.9 2.9 4.2 4.4 2.2-8.5 5.3-17.2 9.5-25.7-5.7 7.2-10.1 14.2-13.7 21.3zm-49.9 5.2c-2.1 10.3-2.5 20.3-1.8 30.1 2-6.8 4.3-13.6 7.2-20.3-1.6-3.2-3.3-6.5-5.4-9.8zm85.1 0c-2 10.3-2.4 20.3-1.8 30.1 2-6.8 4.3-13.6 7.2-20.3-1.5-3.2-3.4-6.5-5.4-9.8zm-195 11c2.3-3.8 5-7.7 8.1-11.5 2.2 6.7 3.7 13.4 4.9 20.2-1.9 3.3-3.4 6.8-4.9 10.4-2.2-6.4-4.9-12.8-8.1-19.1zm-9.9 6.6c-2 2.9-3.8 5.9-5.4 9.1-1.1-1.6-2.4-3.1-3.7-4.6-.4-5.6-1.2-11.3-2.4-17.1 1.3-2.4 2.8-4.9 4.3-7.2 3.2 6.5 5.6 13.1 7.2 19.8zm-7.7 13.9c-.3.6-.6 1.3-.8 1.8 0-1.3-.1-2.7-.1-4.1.3.7.6 1.5.9 2.3zm-.8-36.7c-1.4 1.4-2.9 2.9-4.2 4.4-2.2-8.5-5.2-17.2-9.4-25.7 5.5 7.2 10 14.2 13.6 21.3zm49.9 5.2c2 10.3 2.4 20.3 1.8 30.1-2-6.8-4.3-13.6-7.2-20.3 1.5-3.2 3.4-6.5 5.4-9.8zm-85.1 0c2.1 10.3 2.5 20.3 1.8 30.1-2-6.8-4.3-13.6-7.2-20.3 1.5-3.2 3.3-6.5 5.4-9.8zm-130.7 35.9c-.5-2.8-1.2-5.5-2.2-8.2-1 5.9-1.7 12-1.9 18 1.1-3.3 2.4-6.6 4.1-9.8zm-9.8-24.9c-2.3-3.8-5-7.7-8.2-11.5-2.2 6.7-3.7 13.4-4.9 20.2 1.9 3.3 3.5 6.8 4.9 10.4 2.3-6.4 5-12.8 8.2-19.1zm-75.7 6.1c1.9 2.6 3.5 5.3 5 8 1.6-2.7 3.2-5.4 5.1-8 .4-4 1-8.1 1.9-12.1-2-3.7-4.2-7.2-6.9-10.8-2.6 3.6-4.9 7.1-6.9 10.8.6 4 1.3 8.1 1.8 12.1zm85.5.5c2.1 2.9 3.8 5.9 5.5 9.1 1.1-1.6 2.4-3.1 3.6-4.6.5-5.6 1.2-11.3 2.5-17.1-1.3-2.4-2.8-4.9-4.5-7.2-3.1 6.5-5.4 13.1-7.1 19.8zm7.7 13.9c.3.6.6 1.3.9 1.8 0-1.3 0-2.7.1-4.1-.4.7-.7 1.5-1 2.3zm.8-36.7c1.6 1.4 2.9 2.9 4.2 4.4 2.2-8.5 5.3-17.2 9.5-25.7-5.6 7.2-10 14.2-13.7 21.3zm-49.8 5.2c-2.1 10.3-2.5 20.3-1.8 30.1 2-6.8 4.3-13.6 7.2-20.3-1.6-3.2-3.4-6.5-5.4-9.8zm85 0c-2 10.3-2.4 20.3-1.8 30.1 2-6.8 4.3-13.6 7.2-20.3-1.4-3.2-3.3-6.5-5.4-9.8zm-194.9 11c2.3-3.8 5-7.7 8.1-11.5 2.2 6.7 3.7 13.4 4.9 20.2-1.9 3.3-3.4 6.8-4.9 10.4-2.2-6.4-4.9-12.8-8.1-19.1zm-9.9 6.6c-2 2.9-3.8 5.9-5.5 9.1-1-1.6-2.3-3.1-3.6-4.6-.4-5.6-1.2-11.3-2.4-17.1 1.3-2.4 2.8-4.9 4.3-7.2 3.2 6.5 5.6 13.1 7.2 19.8zm-7.7 13.9c-.3.6-.6 1.3-.8 1.8 0-1.3-.1-2.7-.1-4.1.2.7.5 1.5.9 2.3zm-.9-36.7c-1.4 1.4-2.9 2.9-4.2 4.4-2.2-8.5-5.2-17.2-9.4-25.7 5.6 7.2 10.1 14.2 13.6 21.3zm50 5.2c2 10.3 2.4 20.3 1.8 30.1-2-6.8-4.3-13.6-7.2-20.3 1.5-3.2 3.3-6.5 5.4-9.8zm-85.2 0c2.1 10.3 2.5 20.3 1.8 30.1-2-6.8-4.3-13.6-7.2-20.3 1.5-3.2 3.4-6.5 5.4-9.8zm1031.1 35.9c.5-2.8 1.2-5.5 2.2-8.2 1 5.9 1.7 12 1.9 18-1.2-3.3-2.6-6.6-4.1-9.8zm160.9 0c-.5-2.8-1.2-5.5-2.2-8.2-1 5.9-1.6 12-1.9 18 1.2-3.3 2.5-6.6 4.1-9.8zm-9.7-24.9c-2.3-3.8-5-7.7-8.1-11.5-2.2 6.7-3.7 13.4-4.9 20.2 1.8 3.3 3.4 6.8 4.9 10.4 2.2-6.4 4.9-12.8 8.1-19.1zm-241.9 27.4c-.4-1.8-1-3.7-1.8-5.5-.5 4.2-.9 8.5-1.1 12.9.8-2.6 1.9-4.9 2.9-7.4zm-11.1-22.2c-1.1-1.5-2.4-3-3.7-4.4 1.6 1.1 2.9 2.2 4.2 3.3 2.7-5.6 5.8-11.1 9.3-16.5-2.4-5.3-5.3-10.5-8.8-15.7-5.8 12.2-9.4 24.5-11.5 36.8 1.9 3.3 3.4 6.8 4.9 10.4 1.7-4.6 3.5-9.2 5.6-13.9zm10.5 9.6c1.4 1.9 2.8 4 4 6 1.1-2.1 2.5-4.1 3.9-6-.9-5.2-2.3-10.4-3.9-15.6-1.8 5.3-3 10.4-4 15.6zm7.3 12.6c1.1 2.5 2.1 4.9 2.9 7.3-.2-4.3-.6-8.6-1.1-12.9-.7 1.9-1.3 3.7-1.8 5.6zm-14.8-59.4c4.2 4.2 8.1 8.5 11.5 13.1 3.4-4.5 7.1-8.9 11.4-13.1-3.2-6.2-6.9-12.3-11.4-18.6-4.4 6.2-8.3 12.4-11.5 18.6zm16.1 19.6c3.6 5.4 6.6 10.9 9.3 16.5 1.3-1.2 2.8-2.3 4.2-3.3-1.3 1.4-2.6 2.9-3.7 4.4 2.1 4.6 3.9 9.3 5.6 13.9 1.4-3.6 3-7 4.9-10.4-2.1-12.3-5.6-24.6-11.5-36.8-3.5 5.2-6.4 10.4-8.8 15.7zm158.1 18.5c1.9 2.6 3.5 5.3 5.1 8 1.4-2.7 3.1-5.4 5-8 .4-4 1.1-8.1 2-12.1-2.1-3.7-4.3-7.2-6.9-10.8-2.7 3.6-5 7.1-6.9 10.8.7 4 1.3 8.1 1.7 12.1zm85.5.5c2.1 2.9 3.9 5.9 5.5 9.1 1.1-1.6 2.4-3.1 3.7-4.6.4-5.6 1.2-11.3 2.4-17.1-1.3-2.4-2.8-4.9-4.3-7.2-3.2 6.5-5.6 13.1-7.3 19.8zm7.9 13.9c.3.6.5 1.3.8 1.8 0-1.3 0-2.7.1-4.1-.3.7-.6 1.5-.9 2.3zm.8-36.7c1.4 1.4 2.9 2.9 4.2 4.4 2.2-8.5 5.2-17.2 9.4-25.7-5.5 7.2-10.1 14.2-13.6 21.3zm-50 5.2c-2 10.3-2.4 20.3-1.8 30.1 2-6.8 4.3-13.6 7.2-20.3-1.5-3.2-3.3-6.5-5.4-9.8zm85.2 0c-2.1 10.3-2.5 20.3-1.9 30.1 2.1-6.8 4.5-13.6 7.3-20.3-1.6-3.2-3.4-6.5-5.4-9.8zm-195.1 11c2.3-3.8 5-7.7 8.2-11.5 2.1 6.7 3.7 13.4 4.8 20.2-1.8 3.3-3.4 6.8-4.8 10.4-2.3-6.4-5-12.8-8.2-19.1zm-9.7 6.6c-2.1 2.9-3.8 5.9-5.5 9.1-1.1-1.6-2.4-3.1-3.7-4.6-.4-5.6-1.1-11.3-2.4-17.1 1.3-2.4 2.8-4.9 4.5-7.2 3 6.5 5.3 13.1 7.1 19.8zm-7.8 13.9c-.3.6-.6 1.3-.9 1.8 0-1.3 0-2.7-.1-4.1.4.7.7 1.5 1 2.3zm-.8-36.7c-1.6 1.4-2.9 2.9-4.2 4.4-2.2-8.5-5.3-17.2-9.5-25.7 5.5 7.2 10 14.2 13.7 21.3zm49.8 5.2c2.1 10.3 2.5 20.3 1.8 30.1-2-6.8-4.3-13.6-7.2-20.3 1.5-3.2 3.4-6.5 5.4-9.8zm-85 0c2 10.3 2.4 20.3 1.8 30.1-2-6.8-4.4-13.6-7.2-20.3 1.4-3.2 3.2-6.5 5.4-9.8zm-130.8 35.9c-.5-2.8-1.2-5.5-2.2-8.2-1 5.9-1.6 12-1.9 18 1.2-3.3 2.5-6.6 4.1-9.8zm-9.8-24.9c-2.3-3.8-5-7.7-8.1-11.5-2.2 6.7-3.7 13.4-4.9 20.2 1.8 3.3 3.4 6.8 4.9 10.4 2.2-6.4 4.9-12.8 8.1-19.1zm-75.7 6.1c1.9 2.6 3.5 5.3 5.1 8 1.4-2.7 3.1-5.4 5-8 .4-4 1.1-8.1 2-12.1-2.1-3.7-4.3-7.2-6.9-10.8-2.7 3.6-5 7.1-6.9 10.8.6 4 1.3 8.1 1.7 12.1zm85.5.5c2.1 2.9 3.9 5.9 5.5 9.1 1.1-1.6 2.4-3.1 3.7-4.6.4-5.6 1.2-11.3 2.4-17.1-1.3-2.4-2.8-4.9-4.3-7.2-3.2 6.5-5.6 13.1-7.3 19.8zm7.8 13.9c.3.6.5 1.3.8 1.8 0-1.3 0-2.7.1-4.1-.3.7-.6 1.5-.9 2.3zm.9-36.7c1.4 1.4 2.9 2.9 4.2 4.4 2.1-8.5 5.2-17.2 9.4-25.7-5.6 7.2-10.1 14.2-13.6 21.3zm-50 5.2c-2 10.3-2.4 20.3-1.8 30.1 2-6.8 4.3-13.6 7.2-20.3-1.5-3.2-3.4-6.5-5.4-9.8zm85.1 0c-2.1 10.3-2.5 20.3-1.9 30.1 2.1-6.8 4.4-13.6 7.3-20.3-1.5-3.2-3.3-6.5-5.4-9.8zm-195 11c2.3-3.8 5-7.7 8.2-11.5 2.1 6.7 3.7 13.4 4.8 20.2-1.8 3.3-3.4 6.8-4.8 10.4-2.3-6.4-5-12.8-8.2-19.1zm-9.8 6.6c-2.1 2.9-3.8 5.9-5.5 9.1-1.1-1.6-2.4-3.1-3.7-4.6-.4-5.6-1.1-11.3-2.4-17.1 1.3-2.4 2.8-4.9 4.5-7.2 3.1 6.5 5.4 13.1 7.1 19.8zm-7.7 13.9c-.3.6-.6 1.3-.9 1.8 0-1.3 0-2.7-.1-4.1.3.7.7 1.5 1 2.3zm-.9-36.7c-1.6 1.4-2.9 2.9-4.2 4.4-2.2-8.5-5.3-17.2-9.5-25.7 5.6 7.2 10.1 14.2 13.7 21.3zm49.9 5.2c2 10.3 2.5 20.3 1.8 30.1-2-6.8-4.3-13.6-7.2-20.3 1.5-3.2 3.3-6.5 5.4-9.8zm-85.1 0c2 10.3 2.4 20.3 1.8 30.1-2-6.8-4.5-13.6-7.2-20.3 1.5-3.2 3.3-6.5 5.4-9.8z" clip-rule="evenodd" class="color0ebaa0 svgShape"/><g fill="#000000" class="color000 svgShape"><path fill="#09a98e" d="m2567.4 1929.1-1.8-1.5c34.7-42.7 67.7-109.3 63.4-161.9l2.3-.2c2 24.7-4.1 54.7-17.7 86.6-11.6 27.3-28 54.6-46.2 77z" class="color09a98e svgShape"/><path fill="#09a98e" d="M2565.4 1928.6c-4.6-54.8-26.9-125.8-66.4-160.7l1.6-1.8c18.6 16.4 34.9 42.3 47.2 74.8 10.5 27.7 17.6 58.7 20 87.5l-2.4.2z" class="color09a98e svgShape"/><path fill="#09a98e" d="m2567.6 1928.7-2.3-.7c15.9-52.7 21.2-126.9-2.7-173.9l2.1-1.1c11.2 22.1 16.9 52.2 16.4 86.9-.3 29.7-5.1 61.2-13.5 88.8z" class="color09a98e svgShape"/><path fill="#16b79e" fill-rule="evenodd" d="M2630.6 1772.6c-3.6-4.1-7.3-6.2-9.2-11.8-1.9-5.6.1-13.9 3.7-14.5 3.1-.9 8.8 5.8 9.2 11.8.4 6.1-1.9 9-3.7 14.5zM2629 1794.8c-4.9.7-8.3 2.5-13.5 1.1-5.2-1.3-10.5-7-9.1-10 .9-2.8 8.7-3.8 13.5-1.1 4.7 2.6 5.8 5.8 9.1 10zM2629.2 1794.8c4.1 2.7 6.5 5.8 11.7 6.8 5.3 1 12.5-1.8 12.5-5.2.4-2.9-6.3-7.1-11.7-6.8-5.4.4-7.8 2.8-12.5 5.2zM2624.3 1818.1c-4.9.7-8.3 2.5-13.5 1.1-5.2-1.3-10.5-7-9.1-10 .9-2.8 8.7-3.8 13.5-1.1 4.8 2.6 5.9 5.8 9.1 10zM2624.6 1818c4.1 2.7 6.5 5.8 11.7 6.8 5.3 1 12.5-1.8 12.5-5.2.4-2.9-6.3-7.1-11.7-6.8-5.5.4-7.8 2.9-12.5 5.2zM2617.1 1840.5c-4.9.4-8.4 2-13.6.3-5.1-1.7-10.1-7.6-8.5-10.5 1-2.8 8.9-3.3 13.5-.3 4.7 2.9 5.6 6.2 8.6 10.5zM2617.4 1840.5c4 3 6.1 6.2 11.3 7.5 5.2 1.3 12.6-1.1 12.8-4.4.6-2.9-5.8-7.5-11.3-7.5-5.5 0-8 2.3-12.8 4.4zM2607.3 1863.1c-5 .1-8.6 1.4-13.5-.6-5-2-9.5-8.3-7.8-11.1 1.2-2.7 9.1-2.6 13.5.6s5.1 6.6 7.8 11.1zM2607.5 1863.1c3.7 3.2 5.6 6.6 10.8 8.3 5.1 1.7 12.6-.2 13.1-3.5.8-2.8-5.3-7.9-10.7-8.3-5.5-.3-8.2 1.8-13.2 3.5zM2597.1 1883.1c-4.9-.6-8.7.2-13.3-2.5s-8.3-9.6-6.1-12.1c1.6-2.5 9.4-1.3 13.3 2.5 3.9 3.8 4.1 7.2 6.1 12.1zM2597.3 1883.1c3.3 3.7 4.7 7.3 9.5 9.7 4.8 2.4 12.5 1.6 13.5-1.6 1.2-2.7-4.1-8.6-9.5-9.7-5.4-1.1-8.3.6-13.5 1.6zM2504.8 1771.8c-5.4-.5-9.5.6-14.8-2.1-5.3-2.7-9.6-10.1-7.4-13 1.6-2.8 10.3-1.9 14.8 2.1 4.6 4 4.9 7.7 7.4 13zM2519.1 1788.9c-3 3.9-4.3 7.5-9 10.2-4.7 2.6-12.4 2.2-13.5-.9-1.3-2.6 3.7-8.8 9-10.2s8.2.2 13.5.9zM2519.2 1788.7c4.9-.9 8.7-.3 13.2-3.2 4.5-2.9 7.7-10 5.5-12.4-1.7-2.4-9.5-.8-13.2 3.2-3.7 4.1-3.7 7.4-5.5 12.4zM2531.8 1808.9c-3 3.9-4.3 7.5-8.9 10.2-4.7 2.6-12.4 2.2-13.5-.9-1.3-2.6 3.7-8.8 8.9-10.2 5.3-1.4 8.3.1 13.5.9zM2532 1808.7c4.9-.9 8.7-.3 13.2-3.2 4.5-2.9 7.7-10 5.5-12.4-1.7-2.4-9.5-.8-13.2 3.2-3.7 4-3.7 7.4-5.5 12.4zM2542.2 1830.1c-3.3 3.7-4.7 7.3-9.5 9.6s-12.5 1.5-13.4-1.7c-1.2-2.7 4.2-8.6 9.5-9.6 5.3-1.1 8.2.6 13.4 1.7zM2542.3 1829.9c4.9-.6 8.7.2 13.3-2.4 4.7-2.7 8.3-9.5 6.2-12.1-1.6-2.5-9.4-1.4-13.3 2.5-3.9 3.8-4.1 7.1-6.2 12zM2550.8 1853.2c-3.5 3.5-5.2 6.9-10.2 8.9-5 2-12.6.6-13.3-2.6-1-2.8 4.8-8.2 10.2-8.9 5.4-.8 8.2 1.2 13.3 2.6zM2550.9 1853c5-.3 8.6.8 13.5-1.5 4.8-2.3 9-8.9 7-11.6-1.4-2.6-9.3-2-13.5 1.5-4.1 3.6-4.5 6.9-7 11.6zM2557.2 1874.6c-4 2.9-6.1 6.1-11.3 7.4-5.2 1.3-12.6-1.2-12.8-4.5-.6-2.9 5.9-7.5 11.3-7.4 5.5.1 8 2.4 12.8 4.5z" clip-rule="evenodd" class="color16b79e svgShape"/><path fill="#16b79e" fill-rule="evenodd" d="M2557.4 1874.5c4.9.4 8.4 2 13.5.4s10.1-7.5 8.6-10.5c-1-2.8-8.9-3.3-13.5-.4s-5.5 6.2-8.6 10.5z" clip-rule="evenodd" class="color16b79e svgShape"/><path fill="#4fbd9d" fill-rule="evenodd" d="M2566.7 1760c-4.9-2.4-9.1-2.9-13-7.4s-5.2-12.9-2.1-14.8c2.6-2 10.3 2 13 7.4 2.7 5.4 1.7 9 2.1 14.8zM2573.7 1781.1c-4.3 2.5-6.7 5.4-12.1 6.2-5.3.7-12.4-2.5-12.2-5.8-.3-2.9 6.6-6.8 12.1-6.2 5.3.7 7.6 3.2 12.2 5.8zM2573.9 1781c4.9 1 8.2 2.9 13.4 1.8 5.3-1.1 10.9-6.4 9.6-9.5-.7-2.9-8.5-4.2-13.4-1.8-4.9 2.4-6.2 5.5-9.6 9.5zM2578.2 1804.4c-4.3 2.5-6.7 5.5-12.1 6.2-5.3.7-12.4-2.5-12.3-5.8-.2-2.9 6.6-6.8 12.1-6.2s7.7 3.2 12.3 5.8zM2578.4 1804.3c4.9 1 8.2 2.9 13.4 1.8 5.3-1.1 10.9-6.4 9.6-9.5-.7-2.9-8.5-4.2-13.4-1.8-4.9 2.4-6.1 5.5-9.6 9.5zM2580 1827.9c-4.4 2.3-7.1 5-12.4 5.4-5.4.4-12.2-3.2-11.9-6.5-.1-3 7-6.4 12.4-5.4 5.4.9 7.5 3.6 11.9 6.5zM2580.2 1827.8c4.8 1.2 8 3.4 13.3 2.6 5.3-.8 11.2-5.8 10.2-8.9-.6-2.9-8.3-4.7-13.3-2.6s-6.4 5.1-10.2 8.9zM2579.5 1852.6c-4.6 1.9-7.4 4.5-12.8 4.6-5.4 0-11.9-4.1-11.4-7.3.1-2.9 7.5-5.9 12.8-4.6 5.3 1.3 7.2 4.1 11.4 7.3zM2579.7 1852.5c4.7 1.6 7.7 3.9 13.1 3.6 5.4-.4 11.6-5 10.8-8.2-.3-2.9-7.9-5.3-13.1-3.6-5.2 1.8-6.8 4.7-10.8 8.2zM2577.6 1874.9c-4.8 1.3-8 3.4-13.3 2.7s-11.3-5.7-10.3-8.9c.5-2.9 8.2-4.8 13.3-2.7 5.2 2.1 6.6 5.1 10.3 8.9zM2577.9 1874.8c4.4 2.2 7.1 5 12.4 5.4 5.4.4 12.2-3.3 11.8-6.6.1-3-7.1-6.4-12.4-5.4-5.4 1-7.4 3.7-11.8 6.6z" clip-rule="evenodd" class="color4fbd9d svgShape"/></g></svg>